<?xml version="1.0" encoding="UTF-8"?>
<!DOCTYPE svg PUBLIC "-//W3C//DTD SVG 1.1//EN" "http://www.w3.org/Graphics/SVG/1.1/DTD/svg11.dtd">
<svg xmlns="http://www.w3.org/2000/svg" version="1.1" width="519px" height="519px" style="shape-rendering:geometricPrecision; text-rendering:geometricPrecision; image-rendering:optimizeQuality; fill-rule:evenodd; clip-rule:evenodd" xmlns:xlink="http://www.w3.org/1999/xlink">
<g><path style="opacity:1" fill="#fefefe" d="M -0.5,-0.5 C 172.5,-0.5 345.5,-0.5 518.5,-0.5C 518.5,172.5 518.5,345.5 518.5,518.5C 345.5,518.5 172.5,518.5 -0.5,518.5C -0.5,345.5 -0.5,172.5 -0.5,-0.5 Z"/></g>
<g><path style="opacity:1" fill="#c3c2c4" d="M 337.5,57.5 C 326.852,58.277 316.185,58.6103 305.5,58.5C 314.503,57.7055 323.67,57.0388 333,56.5C 334.707,56.5085 336.207,56.8418 337.5,57.5 Z"/></g>
<g><path style="opacity:1" fill="#9c909d" d="M 382.5,55.5 C 383.613,56.9464 383.78,58.6131 383,60.5C 381.989,61.3366 380.822,61.67 379.5,61.5C 379.806,64.3854 379.473,67.0521 378.5,69.5C 378.5,66.8333 378.5,64.1667 378.5,61.5C 381.734,60.9114 383.067,58.9114 382.5,55.5 Z"/></g>
<g><path style="opacity:1" fill="#492249" d="M 378.5,61.5 C 378.5,64.1667 378.5,66.8333 378.5,69.5C 378.5,70.8333 378.5,72.1667 378.5,73.5C 373.247,69.3291 373.247,65.3291 378.5,61.5 Z"/></g>
<g><path style="opacity:1" fill="#5e136a" d="M 360.5,58.5 C 362.948,59.4731 365.615,59.8064 368.5,59.5C 368.5,60.5 368.5,61.5 368.5,62.5C 367.89,63.391 367.557,64.391 367.5,65.5C 364.227,69.0586 363.727,73.0586 366,77.5C 370.607,80.596 375.107,83.7627 379.5,87C 382.382,87.2724 385.049,88.1057 387.5,89.5C 389.183,90.8534 390.516,92.5201 391.5,94.5C 391.372,96.6547 391.872,98.6547 393,100.5C 396.144,102.809 398.644,105.642 400.5,109C 402.078,110.094 403.745,110.928 405.5,111.5C 408.45,113.115 411.116,115.115 413.5,117.5C 414.167,118.5 414.833,119.5 415.5,120.5C 405.968,122.67 396.301,123.67 386.5,123.5C 384.353,121.518 382.353,119.351 380.5,117C 381.741,115.269 382.741,113.436 383.5,111.5C 384.766,110.91 386.099,110.41 387.5,110C 386.848,107.91 386.681,105.743 387,103.5C 383.193,100.274 379.027,99.7741 374.5,102C 373.439,105.124 372.439,108.291 371.5,111.5C 369.866,111.968 368.7,112.968 368,114.5C 366.484,119.521 364.984,124.521 363.5,129.5C 363.5,130.833 363.5,132.167 363.5,133.5C 361.076,133.808 358.743,133.474 356.5,132.5C 353.099,128.043 349.932,123.377 347,118.5C 346.664,114.363 347.164,110.363 348.5,106.5C 348.324,103.118 347.824,99.7848 347,96.5C 344.181,94.6232 341.347,94.2899 338.5,95.5C 335.828,97.3914 334.828,100.058 335.5,103.5C 335.326,105.861 334.993,108.194 334.5,110.5C 331.689,110.826 329.022,111.659 326.5,113C 318.173,113.5 309.84,113.666 301.5,113.5C 301.167,113.5 300.833,113.5 300.5,113.5C 300.077,112.735 299.743,111.902 299.5,111C 301.328,109.837 302.328,108.17 302.5,106C 301.22,102.494 301.22,98.9936 302.5,95.5C 301.619,89.9444 298.619,88.2778 293.5,90.5C 292.304,92.1446 291.304,93.8113 290.5,95.5C 289.937,97.3195 288.771,98.6529 287,99.5C 283.206,98.7703 279.373,98.2703 275.5,98C 274.833,97 274.167,96 273.5,95C 276.572,90.6358 275.572,89.1358 270.5,90.5C 269.614,89.675 269.281,88.675 269.5,87.5C 273.945,87.2797 278.278,86.4464 282.5,85C 284.424,83.2502 286.091,81.4169 287.5,79.5C 289.199,79.6602 290.866,79.4935 292.5,79C 296.399,75.5887 300.399,72.4221 304.5,69.5C 313.822,68.6497 323.155,68.483 332.5,69C 334.5,69.6667 335.833,71 336.5,73C 340.085,74.6753 343.752,74.842 347.5,73.5C 348.246,72.2638 348.579,70.9305 348.5,69.5C 351.19,66.4305 352.523,62.7639 352.5,58.5C 355.167,58.5 357.833,58.5 360.5,58.5 Z"/></g>
<g><path style="opacity:1" fill="#56165f" d="M 383.5,111.5 C 385.251,104.893 382.918,102.393 376.5,104C 375.663,105.011 375.33,106.178 375.5,107.5C 373.42,111.996 371.086,116.329 368.5,120.5C 367.023,123.591 365.356,126.591 363.5,129.5C 364.984,124.521 366.484,119.521 368,114.5C 368.7,112.968 369.866,111.968 371.5,111.5C 372.439,108.291 373.439,105.124 374.5,102C 379.027,99.7741 383.193,100.274 387,103.5C 386.681,105.743 386.848,107.91 387.5,110C 386.099,110.41 384.766,110.91 383.5,111.5 Z"/></g>
<g><path style="opacity:1" fill="#0c080d" d="M 355.5,46.5 C 359.112,48.6145 363.112,49.6145 367.5,49.5C 368.5,49.5 369.5,49.5 370.5,49.5C 372.709,50.9758 374.042,50.3091 374.5,47.5C 381.276,45.6062 383.942,48.2728 382.5,55.5C 383.067,58.9114 381.734,60.9114 378.5,61.5C 373.247,65.3291 373.247,69.3291 378.5,73.5C 381.967,75.0672 385.3,76.9005 388.5,79C 396.5,87.6667 404.5,96.3333 412.5,105C 418.193,109.366 424.36,112.866 431,115.5C 432.661,122.006 430.161,125.672 423.5,126.5C 420.09,126.543 416.757,126.043 413.5,125C 414.448,124.517 415.448,124.351 416.5,124.5C 416.737,123.209 416.404,122.209 415.5,121.5C 415.5,121.167 415.5,120.833 415.5,120.5C 416.675,120.719 417.675,120.386 418.5,119.5C 416.993,118.611 415.66,117.611 414.5,116.5C 410.689,113.75 407.022,110.75 403.5,107.5C 400.628,102.06 396.628,97.7263 391.5,94.5C 390.516,92.5201 389.183,90.8534 387.5,89.5C 386.345,87.1749 384.345,86.0082 381.5,86C 377.627,82.3557 373.294,79.5223 368.5,77.5C 367.509,73.5546 367.176,69.5546 367.5,65.5C 367.557,64.391 367.89,63.391 368.5,62.5C 369.931,61.2196 370.598,59.5529 370.5,57.5C 367.214,58.2071 363.881,58.5405 360.5,58.5C 358.799,57.2658 356.799,56.5992 354.5,56.5C 352.97,56.6399 351.97,57.3065 351.5,58.5C 348.151,58.8731 347.151,60.5398 348.5,63.5C 349.641,65.4513 349.641,67.4513 348.5,69.5C 346.277,71.1972 343.777,72.5306 341,73.5C 338.398,71.1591 335.898,68.6591 333.5,66C 331.866,65.5065 330.199,65.3398 328.5,65.5C 320.445,64.1108 312.445,64.4442 304.5,66.5C 299.152,68.3308 293.819,70.4974 288.5,73C 282.616,77.057 276.616,80.8904 270.5,84.5C 269.005,84.9887 267.671,85.6554 266.5,86.5C 264.174,87.1447 262.507,88.478 261.5,90.5C 262.75,93.0668 263.917,95.7334 265,98.5C 266.845,99.0495 268.345,100.05 269.5,101.5C 262.627,104.619 255.96,107.952 249.5,111.5C 247.328,114.511 245.661,117.844 244.5,121.5C 243.89,122.391 243.557,123.391 243.5,124.5C 242.5,124.833 241.833,125.5 241.5,126.5C 240.5,126.5 239.5,126.5 238.5,126.5C 238.5,125.5 238.5,124.5 238.5,123.5C 239.11,122.609 239.443,121.609 239.5,120.5C 245.217,112.605 251.551,105.105 258.5,98C 255.667,95.1667 252.833,92.3333 250,89.5C 249.104,86.975 249.604,84.8083 251.5,83C 254.893,82.2023 258.226,81.2023 261.5,80C 271.757,74.7336 281.757,69.0669 291.5,63C 296.127,60.9561 300.794,59.4561 305.5,58.5C 316.185,58.6103 326.852,58.277 337.5,57.5C 337.56,58.0431 337.893,58.3764 338.5,58.5C 341.949,51.388 347.616,47.388 355.5,46.5 Z"/></g>
<g><path style="opacity:1" fill="#4f1958" d="M 391.5,94.5 C 396.628,97.7263 400.628,102.06 403.5,107.5C 403.062,107.435 402.728,107.601 402.5,108C 403.71,109.039 404.71,110.206 405.5,111.5C 403.745,110.928 402.078,110.094 400.5,109C 398.644,105.642 396.144,102.809 393,100.5C 391.872,98.6547 391.372,96.6547 391.5,94.5 Z"/></g>
<g><path style="opacity:1" fill="#320d38" d="M 300.5,113.5 C 299.351,113.209 298.684,112.376 298.5,111C 299.167,109.333 299.833,107.667 300.5,106C 300.273,101.298 299.94,96.6313 299.5,92C 296.975,91.1041 294.808,91.6041 293,93.5C 292.468,96.2635 291.634,98.9302 290.5,101.5C 287.355,102.803 284.355,102.803 281.5,101.5C 283.857,101.663 286.19,101.497 288.5,101C 290.155,99.5557 290.822,97.7224 290.5,95.5C 291.304,93.8113 292.304,92.1446 293.5,90.5C 298.619,88.2778 301.619,89.9444 302.5,95.5C 301.22,98.9936 301.22,102.494 302.5,106C 302.328,108.17 301.328,109.837 299.5,111C 299.743,111.902 300.077,112.735 300.5,113.5 Z"/></g>
<g><path style="opacity:1" fill="#561c5f" d="M 287.5,79.5 C 286.091,81.4169 284.424,83.2502 282.5,85C 278.278,86.4464 273.945,87.2797 269.5,87.5C 269.281,88.675 269.614,89.675 270.5,90.5C 275.572,89.1358 276.572,90.6358 273.5,95C 274.167,96 274.833,97 275.5,98C 279.373,98.2703 283.206,98.7703 287,99.5C 288.771,98.6529 289.937,97.3195 290.5,95.5C 290.822,97.7224 290.155,99.5557 288.5,101C 286.19,101.497 283.857,101.663 281.5,101.5C 277.681,101.395 274.014,100.562 270.5,99C 268.177,96.5018 265.843,94.0018 263.5,91.5C 264.596,89.8968 265.93,88.3968 267.5,87C 267.272,86.6012 266.938,86.4346 266.5,86.5C 267.671,85.6554 269.005,84.9887 270.5,84.5C 270.56,85.0431 270.893,85.3764 271.5,85.5C 276.935,83.6896 282.268,81.6896 287.5,79.5 Z"/></g>
<g><path style="opacity:1" fill="#d1bfd2" d="M 266.5,86.5 C 266.938,86.4346 267.272,86.6012 267.5,87C 265.93,88.3968 264.596,89.8968 263.5,91.5C 262.833,91.1667 262.167,90.8333 261.5,90.5C 262.507,88.478 264.174,87.1447 266.5,86.5 Z"/></g>
<g><path style="opacity:1" fill="#401347" d="M 367.5,65.5 C 367.176,69.5546 367.509,73.5546 368.5,77.5C 373.294,79.5223 377.627,82.3557 381.5,86C 384.345,86.0082 386.345,87.1749 387.5,89.5C 385.049,88.1057 382.382,87.2724 379.5,87C 375.107,83.7627 370.607,80.596 366,77.5C 363.727,73.0586 364.227,69.0586 367.5,65.5 Z"/></g>
<g><path style="opacity:1" fill="#ebe0ec" d="M 304.5,66.5 C 306.833,66.5 309.167,66.5 311.5,66.5C 311.5,66.8333 311.5,67.1667 311.5,67.5C 308.848,67.4095 306.515,68.0762 304.5,69.5C 298.828,72.8412 293.162,76.1746 287.5,79.5C 282.268,81.6896 276.935,83.6896 271.5,85.5C 270.893,85.3764 270.56,85.0431 270.5,84.5C 276.616,80.8904 282.616,77.057 288.5,73C 293.819,70.4974 299.152,68.3308 304.5,66.5 Z"/></g>
<g><path style="opacity:1" fill="#5d2d64" d="M 304.5,69.5 C 300.399,72.4221 296.399,75.5887 292.5,79C 290.866,79.4935 289.199,79.6602 287.5,79.5C 293.162,76.1746 298.828,72.8412 304.5,69.5 Z"/></g>
<g><path style="opacity:1" fill="#531f59" d="M 328.5,65.5 C 330.199,65.3398 331.866,65.5065 333.5,66C 335.898,68.6591 338.398,71.1591 341,73.5C 343.777,72.5306 346.277,71.1972 348.5,69.5C 348.579,70.9305 348.246,72.2638 347.5,73.5C 343.752,74.842 340.085,74.6753 336.5,73C 335.833,71 334.5,69.6667 332.5,69C 323.155,68.483 313.822,68.6497 304.5,69.5C 306.515,68.0762 308.848,67.4095 311.5,67.5C 317.329,67.0316 322.996,66.3649 328.5,65.5 Z"/></g>
<g><path style="opacity:1" fill="#9d78a2" d="M 328.5,65.5 C 322.996,66.3649 317.329,67.0316 311.5,67.5C 311.5,67.1667 311.5,66.8333 311.5,66.5C 317.121,65.6463 322.788,65.313 328.5,65.5 Z"/></g>
<g><path style="opacity:1" fill="#3f2c44" d="M 328.5,65.5 C 322.788,65.313 317.121,65.6463 311.5,66.5C 309.167,66.5 306.833,66.5 304.5,66.5C 312.445,64.4442 320.445,64.1108 328.5,65.5 Z"/></g>
<g><path style="opacity:1" fill="#451d4c" d="M 360.5,58.5 C 357.833,58.5 355.167,58.5 352.5,58.5C 352.523,62.7639 351.19,66.4305 348.5,69.5C 349.641,67.4513 349.641,65.4513 348.5,63.5C 350.408,62.5144 351.408,60.8477 351.5,58.5C 351.97,57.3065 352.97,56.6399 354.5,56.5C 356.799,56.5992 358.799,57.2658 360.5,58.5 Z"/></g>
<g><path style="opacity:1" fill="#c8b9ca" d="M 351.5,58.5 C 351.408,60.8477 350.408,62.5144 348.5,63.5C 347.151,60.5398 348.151,58.8731 351.5,58.5 Z"/></g>
<g><path style="opacity:1" fill="#2d102d" d="M 368.5,62.5 C 368.5,61.5 368.5,60.5 368.5,59.5C 365.615,59.8064 362.948,59.4731 360.5,58.5C 363.881,58.5405 367.214,58.2071 370.5,57.5C 370.598,59.5529 369.931,61.2196 368.5,62.5 Z"/></g>
<g><path style="opacity:1" fill="#656165" d="M 374.5,47.5 C 374.042,50.3091 372.709,50.9758 370.5,49.5C 372.062,49.2671 373.395,48.6005 374.5,47.5 Z"/></g>
<g><path style="opacity:1" fill="#472845" d="M 355.5,46.5 C 358.187,46.3359 360.854,46.5026 363.5,47C 365.32,47.2004 366.653,48.0337 367.5,49.5C 363.112,49.6145 359.112,48.6145 355.5,46.5 Z"/></g>
<g><path style="opacity:1" fill="#a107b9" d="M 271.5,107.5 C 272.574,109.284 274.24,110.451 276.5,111C 280.152,111.499 283.818,111.665 287.5,111.5C 287.205,113.735 287.539,115.735 288.5,117.5C 289.682,120.009 291.682,121.343 294.5,121.5C 294.5,122.167 294.833,122.5 295.5,122.5C 295.423,125.509 296.756,127.676 299.5,129C 306.167,129.667 312.833,129.667 319.5,129C 322.457,128.721 325.123,127.887 327.5,126.5C 328.833,126.167 330.167,125.833 331.5,125.5C 333.836,124.657 336.169,124.157 338.5,124C 340.076,126.951 340.743,130.117 340.5,133.5C 341.959,133.433 343.292,133.766 344.5,134.5C 344.063,137.807 344.73,140.807 346.5,143.5C 352.544,145.94 358.711,147.94 365,149.5C 367.713,149.589 370.213,148.922 372.5,147.5C 372.249,142.077 372.916,136.744 374.5,131.5C 379.314,131.374 381.814,133.708 382,138.5C 385.387,142.039 389.553,143.372 394.5,142.5C 395.729,145.135 395.729,147.801 394.5,150.5C 393.08,152.22 391.747,154.054 390.5,156C 389.552,156.483 388.552,156.649 387.5,156.5C 388.937,163.228 388.604,169.894 386.5,176.5C 386.572,183.769 386.572,191.102 386.5,198.5C 386.154,199.696 385.654,199.696 385,198.5C 383.074,206.375 382.074,214.375 382,222.5C 381.085,223.328 380.419,224.328 380,225.5C 379.792,229.918 379.126,234.251 378,238.5C 377.667,237.833 377.333,237.167 377,236.5C 375.344,246.106 372.677,255.44 369,264.5C 368.58,268.952 367.747,273.285 366.5,277.5C 366.167,279.5 365.833,281.5 365.5,283.5C 364.143,284.59 363.143,285.924 362.5,287.5C 361.504,287.414 360.671,287.748 360,288.5C 358.637,293.558 356.471,298.224 353.5,302.5C 352.365,300.293 351.699,297.96 351.5,295.5C 350.25,292.994 349.584,290.327 349.5,287.5C 345.71,287.008 345.044,287.841 347.5,290C 345.244,291.867 342.91,291.867 340.5,290C 341.448,289.517 342.448,289.351 343.5,289.5C 343.105,285.815 342.938,282.148 343,278.5C 344.952,276.663 345.952,274.329 346,271.5C 352.462,266.006 353.962,259.34 350.5,251.5C 347.057,249.279 343.39,248.946 339.5,250.5C 338.295,251.577 337.628,252.91 337.5,254.5C 336.833,254.833 336.167,255.167 335.5,255.5C 333.983,255.511 332.816,256.177 332,257.5C 328.846,264.477 325.846,271.477 323,278.5C 321.807,280.605 320.14,282.272 318,283.5C 317.517,284.448 317.351,285.448 317.5,286.5C 315.339,286.826 313.506,287.826 312,289.5C 309.538,293.739 307.372,298.073 305.5,302.5C 300.258,307.328 296.258,312.994 293.5,319.5C 291.167,320.833 288.833,322.167 286.5,323.5C 285.5,323.5 284.5,323.5 283.5,323.5C 282.836,328.468 282.336,333.468 282,338.5C 280.989,339.337 279.822,339.67 278.5,339.5C 278.657,340.873 278.49,342.207 278,343.5C 276.215,344.24 274.382,344.907 272.5,345.5C 271.132,348.068 271.466,350.401 273.5,352.5C 271.607,355.548 271.274,358.714 272.5,362C 271.561,363.944 270.227,365.611 268.5,367C 270.414,371.858 271.081,377.025 270.5,382.5C 267.99,382.998 265.49,383.664 263,384.5C 247.498,384.49 231.998,384.49 216.5,384.5C 213.822,383.825 211.156,383.158 208.5,382.5C 207.825,373.864 207.825,365.197 208.5,356.5C 208.448,354.097 208.781,351.764 209.5,349.5C 212.286,345.906 211.952,342.406 208.5,339C 199.406,336.711 195.406,340.211 196.5,349.5C 192.5,350.167 192.5,350.833 196.5,351.5C 196.255,360.258 196.922,368.925 198.5,377.5C 197.691,379.071 197.357,380.738 197.5,382.5C 193.5,382.5 189.5,382.5 185.5,382.5C 177.017,381.48 168.684,379.813 160.5,377.5C 157.79,375.892 154.79,374.725 151.5,374C 149.933,371.259 147.599,370.092 144.5,370.5C 143.878,367.224 141.878,365.891 138.5,366.5C 138.62,363.795 137.62,363.128 135.5,364.5C 130.75,361.083 125.75,358.083 120.5,355.5C 119.925,353.589 118.925,351.922 117.5,350.5C 117.649,349.448 117.483,348.448 117,347.5C 110.207,342.148 106.207,335.148 105,326.5C 104.5,318.841 104.334,311.174 104.5,303.5C 108.327,303.56 108.994,302.393 106.5,300C 111.809,294.04 118.476,290.707 126.5,290C 127.444,287.281 127.777,284.448 127.5,281.5C 123.9,281.206 120.4,280.54 117,279.5C 116.648,281.247 116.148,282.914 115.5,284.5C 112.489,285.868 109.322,286.868 106,287.5C 105.833,286.667 105.667,285.833 105.5,285C 107.461,278.285 108.961,271.452 110,264.5C 111.3,261.568 113.3,259.234 116,257.5C 116.716,253.616 117.883,249.949 119.5,246.5C 121.95,245.223 124.283,243.723 126.5,242C 127.337,240.989 127.67,239.822 127.5,238.5C 129.884,238.557 132.218,238.223 134.5,237.5C 136.577,238.937 138.91,239.604 141.5,239.5C 141.297,237.362 140.297,235.695 138.5,234.5C 139.421,232.244 141.088,231.244 143.5,231.5C 143.896,228.956 143.229,226.789 141.5,225C 142.973,224.29 143.64,223.124 143.5,221.5C 145.544,220.969 147.211,219.802 148.5,218C 151.146,217.503 153.813,217.336 156.5,217.5C 156.215,215.712 156.548,214.045 157.5,212.5C 159.55,211.923 160.55,210.59 160.5,208.5C 164.801,207.852 168.801,206.352 172.5,204C 173.126,203.25 173.626,202.416 174,201.5C 174.936,204.768 176.936,207.101 180,208.5C 185.478,208.758 190.978,208.425 196.5,207.5C 196.833,207.5 197.167,207.5 197.5,207.5C 199.467,207.739 201.301,207.406 203,206.5C 203.98,208.059 204.813,209.726 205.5,211.5C 208.564,210.149 211.564,208.649 214.5,207C 212.153,205.809 211.32,203.976 212,201.5C 213.617,198.216 215.95,195.549 219,193.5C 219.49,192.207 219.657,190.873 219.5,189.5C 224.243,188.859 224.577,187.359 220.5,185C 220.833,184.667 221.167,184.333 221.5,184C 217.239,180.411 217.906,178.244 223.5,177.5C 223.664,174.813 223.497,172.146 223,169.5C 222.693,172.876 220.86,174.21 217.5,173.5C 217.509,175.308 217.009,176.975 216,178.5C 214.365,177.151 212.865,177.318 211.5,179C 208.854,179.497 206.187,179.664 203.5,179.5C 203.482,175.871 204.816,172.871 207.5,170.5C 211.592,165.071 216.592,160.738 222.5,157.5C 223.336,153.688 225.003,150.355 227.5,147.5C 230.281,146.554 232.281,144.721 233.5,142C 235.217,140.441 237.217,139.608 239.5,139.5C 238.875,135.416 240.375,132.416 244,130.5C 246.116,125.365 249.45,121.031 254,117.5C 255.009,115.975 255.509,114.308 255.5,112.5C 255.5,112.167 255.5,111.833 255.5,111.5C 257.749,110.92 259.415,109.587 260.5,107.5C 261.5,107.5 262.5,107.5 263.5,107.5C 266.08,105.006 268.747,105.006 271.5,107.5 Z"/></g>
<g><path style="opacity:1" fill="#7a5880" d="M 403.5,107.5 C 407.022,110.75 410.689,113.75 414.5,116.5C 413.833,116.5 413.5,116.833 413.5,117.5C 411.116,115.115 408.45,113.115 405.5,111.5C 404.71,110.206 403.71,109.039 402.5,108C 402.728,107.601 403.062,107.435 403.5,107.5 Z"/></g>
<g><path style="opacity:1" fill="#380441" d="M 255.5,111.5 C 255.5,111.833 255.5,112.167 255.5,112.5C 251.167,116.167 247.167,120.167 243.5,124.5C 243.557,123.391 243.89,122.391 244.5,121.5C 247.563,117.434 251.229,114.101 255.5,111.5 Z"/></g>
<g><path style="opacity:1" fill="#0e0110" d="M 261.5,90.5 C 262.167,90.8333 262.833,91.1667 263.5,91.5C 265.843,94.0018 268.177,96.5018 270.5,99C 274.014,100.562 277.681,101.395 281.5,101.5C 284.355,102.803 287.355,102.803 290.5,101.5C 291.634,98.9302 292.468,96.2635 293,93.5C 294.808,91.6041 296.975,91.1041 299.5,92C 299.94,96.6313 300.273,101.298 300.5,106C 299.833,107.667 299.167,109.333 298.5,111C 298.684,112.376 299.351,113.209 300.5,113.5C 300.833,113.5 301.167,113.5 301.5,113.5C 311.386,114.905 321.386,114.738 331.5,113C 333.329,112.727 334.829,111.893 336,110.5C 336.796,107.961 336.629,105.628 335.5,103.5C 334.828,100.058 335.828,97.3914 338.5,95.5C 340.722,95.178 342.556,95.8446 344,97.5C 344.238,101.373 345.071,105.04 346.5,108.5C 343.741,121.145 348.074,130.311 359.5,136C 360.5,136.667 361.5,136.667 362.5,136C 365.229,131.108 367.229,125.941 368.5,120.5C 371.086,116.329 373.42,111.996 375.5,107.5C 377.456,105.852 379.789,105.185 382.5,105.5C 382.799,107.604 382.466,109.604 381.5,111.5C 377.393,114.08 376.726,117.247 379.5,121C 381.765,122.118 384.099,122.951 386.5,123.5C 389.356,125.006 392.523,125.672 396,125.5C 402.637,124.739 409.137,123.406 415.5,121.5C 416.404,122.209 416.737,123.209 416.5,124.5C 415.448,124.351 414.448,124.517 413.5,125C 416.757,126.043 420.09,126.543 423.5,126.5C 423.5,126.833 423.5,127.167 423.5,127.5C 422.833,127.5 422.167,127.5 421.5,127.5C 416.794,128.343 412.128,129.51 407.5,131C 400.842,131.5 394.175,131.666 387.5,131.5C 383.925,130.711 380.592,129.377 377.5,127.5C 375.777,126.193 373.943,126.193 372,127.5C 369.58,132.591 368.08,137.924 367.5,143.5C 365.516,144.156 363.516,144.822 361.5,145.5C 359.823,144.813 358.156,144.146 356.5,143.5C 354.167,140.5 351.5,137.833 348.5,135.5C 345.395,132.725 343.062,129.392 341.5,125.5C 341.896,122.956 341.229,120.789 339.5,119C 335.619,118.65 331.952,119.15 328.5,120.5C 316.482,120.832 304.482,120.499 292.5,119.5C 291.001,116.228 290.001,112.895 289.5,109.5C 281.96,109.117 274.627,107.45 267.5,104.5C 265.018,104.11 263.685,105.11 263.5,107.5C 262.5,107.5 261.5,107.5 260.5,107.5C 258.251,108.08 256.585,109.413 255.5,111.5C 251.229,114.101 247.563,117.434 244.5,121.5C 245.661,117.844 247.328,114.511 249.5,111.5C 255.96,107.952 262.627,104.619 269.5,101.5C 268.345,100.05 266.845,99.0495 265,98.5C 263.917,95.7334 262.75,93.0668 261.5,90.5 Z"/></g>
<g><path style="opacity:1" fill="#401847" d="M 335.5,103.5 C 336.629,105.628 336.796,107.961 336,110.5C 334.829,111.893 333.329,112.727 331.5,113C 321.386,114.738 311.386,114.905 301.5,113.5C 309.84,113.666 318.173,113.5 326.5,113C 329.022,111.659 331.689,110.826 334.5,110.5C 334.993,108.194 335.326,105.861 335.5,103.5 Z"/></g>
<g><path style="opacity:1" fill="#3f0549" d="M 260.5,107.5 C 259.415,109.587 257.749,110.92 255.5,111.5C 256.585,109.413 258.251,108.08 260.5,107.5 Z"/></g>
<g><path style="opacity:1" fill="#661672" d="M 271.5,107.5 C 277.365,109.156 283.365,109.823 289.5,109.5C 289.167,112.167 288.833,114.833 288.5,117.5C 287.539,115.735 287.205,113.735 287.5,111.5C 283.818,111.665 280.152,111.499 276.5,111C 274.24,110.451 272.574,109.284 271.5,107.5 Z"/></g>
<g><path style="opacity:1" fill="#3b0943" d="M 289.5,109.5 C 283.365,109.823 277.365,109.156 271.5,107.5C 268.747,105.006 266.08,105.006 263.5,107.5C 263.685,105.11 265.018,104.11 267.5,104.5C 274.627,107.45 281.96,109.117 289.5,109.5 Z"/></g>
<g><path style="opacity:1" fill="#3d1243" d="M 338.5,95.5 C 341.347,94.2899 344.181,94.6232 347,96.5C 347.824,99.7848 348.324,103.118 348.5,106.5C 347.164,110.363 346.664,114.363 347,118.5C 349.932,123.377 353.099,128.043 356.5,132.5C 358.743,133.474 361.076,133.808 363.5,133.5C 363.5,132.167 363.5,130.833 363.5,129.5C 365.356,126.591 367.023,123.591 368.5,120.5C 367.229,125.941 365.229,131.108 362.5,136C 361.5,136.667 360.5,136.667 359.5,136C 348.074,130.311 343.741,121.145 346.5,108.5C 345.071,105.04 344.238,101.373 344,97.5C 342.556,95.8446 340.722,95.178 338.5,95.5 Z"/></g>
<g><path style="opacity:1" fill="#43134a" d="M 383.5,111.5 C 382.741,113.436 381.741,115.269 380.5,117C 382.353,119.351 384.353,121.518 386.5,123.5C 384.099,122.951 381.765,122.118 379.5,121C 376.726,117.247 377.393,114.08 381.5,111.5C 382.466,109.604 382.799,107.604 382.5,105.5C 379.789,105.185 377.456,105.852 375.5,107.5C 375.33,106.178 375.663,105.011 376.5,104C 382.918,102.393 385.251,104.893 383.5,111.5 Z"/></g>
<g><path style="opacity:1" fill="#ccbacb" d="M 414.5,116.5 C 415.66,117.611 416.993,118.611 418.5,119.5C 417.675,120.386 416.675,120.719 415.5,120.5C 414.833,119.5 414.167,118.5 413.5,117.5C 413.5,116.833 413.833,116.5 414.5,116.5 Z"/></g>
<g><path style="opacity:1" fill="#841795" d="M 255.5,112.5 C 255.509,114.308 255.009,115.975 254,117.5C 249.45,121.031 246.116,125.365 244,130.5C 240.375,132.416 238.875,135.416 239.5,139.5C 237.217,139.608 235.217,140.441 233.5,142C 232.281,144.721 230.281,146.554 227.5,147.5C 231.533,143.103 234.866,138.103 237.5,132.5C 240.672,130.668 242.672,128.001 243.5,124.5C 247.167,120.167 251.167,116.167 255.5,112.5 Z"/></g>
<g><path style="opacity:1" fill="#27062e" d="M 289.5,109.5 C 290.001,112.895 291.001,116.228 292.5,119.5C 304.482,120.499 316.482,120.832 328.5,120.5C 319.682,121.493 310.682,121.827 301.5,121.5C 299.167,121.5 296.833,121.5 294.5,121.5C 291.682,121.343 289.682,120.009 288.5,117.5C 288.833,114.833 289.167,112.167 289.5,109.5 Z"/></g>
<g><path style="opacity:1" fill="#46164e" d="M 341.5,125.5 C 340.599,124.71 339.932,123.71 339.5,122.5C 339.582,120.748 338.749,119.748 337,119.5C 334.5,120.333 332,121.167 329.5,122C 319.991,122.824 310.657,122.658 301.5,121.5C 310.682,121.827 319.682,121.493 328.5,120.5C 331.952,119.15 335.619,118.65 339.5,119C 341.229,120.789 341.896,122.956 341.5,125.5 Z"/></g>
<g><path style="opacity:1" fill="#3e1245" d="M 415.5,120.5 C 415.5,120.833 415.5,121.167 415.5,121.5C 409.137,123.406 402.637,124.739 396,125.5C 392.523,125.672 389.356,125.006 386.5,123.5C 396.301,123.67 405.968,122.67 415.5,120.5 Z"/></g>
<g><path style="opacity:1" fill="#60126d" d="M 339.5,122.5 C 336.169,122.018 333.503,123.018 331.5,125.5C 330.167,125.833 328.833,126.167 327.5,126.5C 318.131,127.998 308.798,127.831 299.5,126C 297.973,124.968 296.64,123.801 295.5,122.5C 294.833,122.5 294.5,122.167 294.5,121.5C 296.833,121.5 299.167,121.5 301.5,121.5C 310.657,122.658 319.991,122.824 329.5,122C 332,121.167 334.5,120.333 337,119.5C 338.749,119.748 339.582,120.748 339.5,122.5 Z"/></g>
<g><path style="opacity:1" fill="#f5e8f5" d="M 239.5,120.5 C 239.443,121.609 239.11,122.609 238.5,123.5C 236.833,124.5 235.5,125.833 234.5,127.5C 229.529,132.109 225.529,137.443 222.5,143.5C 219.427,145.569 217.094,148.236 215.5,151.5C 212.973,152.875 210.64,154.542 208.5,156.5C 208.389,155.883 208.056,155.383 207.5,155C 210.044,153.519 211.71,151.352 212.5,148.5C 215.443,146.893 218.11,144.893 220.5,142.5C 219.697,139.946 220.697,138.112 223.5,137C 223.167,136.667 222.833,136.333 222.5,136C 223.227,134.601 223.727,133.101 224,131.5C 224.689,132.357 225.522,133.023 226.5,133.5C 228.66,127.502 232.494,122.835 238,119.5C 238.383,120.056 238.883,120.389 239.5,120.5 Z"/></g>
<g><path style="opacity:1" fill="#720982" d="M 295.5,122.5 C 296.64,123.801 297.973,124.968 299.5,126C 308.798,127.831 318.131,127.998 327.5,126.5C 325.123,127.887 322.457,128.721 319.5,129C 312.833,129.667 306.167,129.667 299.5,129C 296.756,127.676 295.423,125.509 295.5,122.5 Z"/></g>
<g><path style="opacity:1" fill="#dfc1e2" d="M 424.5,129.5 C 425.638,132.304 425.805,135.304 425,138.5C 424.292,139.381 423.458,140.047 422.5,140.5C 422.5,140.167 422.5,139.833 422.5,139.5C 424.023,136.37 424.689,133.037 424.5,129.5 Z"/></g>
<g><path style="opacity:1" fill="#621270" d="M 381.5,132.5 C 383.372,133.511 385.372,134.345 387.5,135C 394.167,135.333 400.833,135.667 407.5,136C 409.903,137.727 412.403,137.894 415,136.5C 415.5,136.667 416,136.833 416.5,137C 415.663,138.011 415.33,139.178 415.5,140.5C 410.578,140.55 405.745,139.883 401,138.5C 399.5,138.833 398,139.167 396.5,139.5C 398.297,140.695 399.297,142.362 399.5,144.5C 399.167,144.5 398.833,144.5 398.5,144.5C 397.395,143.4 396.062,142.733 394.5,142.5C 394.047,141.542 393.381,140.708 392.5,140C 387.806,138.988 384.139,136.488 381.5,132.5 Z"/></g>
<g><path style="opacity:1" fill="#530d5c" d="M 377.5,127.5 C 374.762,126.965 372.928,127.965 372,130.5C 371.502,133.817 371.335,137.15 371.5,140.5C 370.167,141.5 368.833,142.5 367.5,143.5C 368.08,137.924 369.58,132.591 372,127.5C 373.943,126.193 375.777,126.193 377.5,127.5 Z"/></g>
<g><path style="opacity:1" fill="#714f73" d="M 234.5,127.5 C 234.649,128.552 234.483,129.552 234,130.5C 230.149,134.906 226.316,139.239 222.5,143.5C 225.529,137.443 229.529,132.109 234.5,127.5 Z"/></g>
<g><path style="opacity:1" fill="#5a1864" d="M 377.5,127.5 C 380.592,129.377 383.925,130.711 387.5,131.5C 387.611,132.117 387.944,132.617 388.5,133C 395.167,133.667 401.833,133.667 408.5,133C 413.189,131.646 417.523,129.812 421.5,127.5C 422.167,127.5 422.833,127.5 423.5,127.5C 423.328,128.492 423.662,129.158 424.5,129.5C 424.689,133.037 424.023,136.37 422.5,139.5C 420.567,139.729 418.9,140.562 417.5,142C 412.316,142.174 407.316,142.674 402.5,143.5C 401.791,144.404 400.791,144.737 399.5,144.5C 399.297,142.362 398.297,140.695 396.5,139.5C 398,139.167 399.5,138.833 401,138.5C 405.745,139.883 410.578,140.55 415.5,140.5C 415.33,139.178 415.663,138.011 416.5,137C 416,136.833 415.5,136.667 415,136.5C 412.403,137.894 409.903,137.727 407.5,136C 400.833,135.667 394.167,135.333 387.5,135C 385.372,134.345 383.372,133.511 381.5,132.5C 380.167,130.833 378.833,129.167 377.5,127.5 Z"/></g>
<g><path style="opacity:1" fill="#37113d" d="M 421.5,127.5 C 417.523,129.812 413.189,131.646 408.5,133C 401.833,133.667 395.167,133.667 388.5,133C 387.944,132.617 387.611,132.117 387.5,131.5C 394.175,131.666 400.842,131.5 407.5,131C 412.128,129.51 416.794,128.343 421.5,127.5 Z"/></g>
<g><path style="opacity:1" fill="#841595" d="M 339.5,122.5 C 339.932,123.71 340.599,124.71 341.5,125.5C 343.062,129.392 345.395,132.725 348.5,135.5C 350.167,139.167 352.833,141.833 356.5,143.5C 356.833,144.167 357.167,144.833 357.5,145.5C 353.984,144.043 350.651,142.376 347.5,140.5C 347.346,138.03 346.346,136.03 344.5,134.5C 343.292,133.766 341.959,133.433 340.5,133.5C 340.743,130.117 340.076,126.951 338.5,124C 336.169,124.157 333.836,124.657 331.5,125.5C 333.503,123.018 336.169,122.018 339.5,122.5 Z"/></g>
<g><path style="opacity:1" fill="#980dac" d="M 377.5,127.5 C 378.833,129.167 380.167,130.833 381.5,132.5C 384.139,136.488 387.806,138.988 392.5,140C 393.381,140.708 394.047,141.542 394.5,142.5C 389.553,143.372 385.387,142.039 382,138.5C 381.814,133.708 379.314,131.374 374.5,131.5C 372.916,136.744 372.249,142.077 372.5,147.5C 370.213,148.922 367.713,149.589 365,149.5C 358.711,147.94 352.544,145.94 346.5,143.5C 344.73,140.807 344.063,137.807 344.5,134.5C 346.346,136.03 347.346,138.03 347.5,140.5C 350.651,142.376 353.984,144.043 357.5,145.5C 357.842,146.338 358.508,146.672 359.5,146.5C 365.376,148.682 369.376,146.682 371.5,140.5C 371.335,137.15 371.502,133.817 372,130.5C 372.928,127.965 374.762,126.965 377.5,127.5 Z"/></g>
<g><path style="opacity:1" fill="#44064d" d="M 348.5,135.5 C 351.5,137.833 354.167,140.5 356.5,143.5C 352.833,141.833 350.167,139.167 348.5,135.5 Z"/></g>
<g><path style="opacity:1" fill="#1d0723" d="M 238.5,123.5 C 238.5,124.5 238.5,125.5 238.5,126.5C 239.5,126.5 240.5,126.5 241.5,126.5C 236.953,131.237 233.12,136.57 230,142.5C 224.184,147.471 219.35,153.138 215.5,159.5C 211.139,161.861 207.806,165.194 205.5,169.5C 204.5,170.167 203.5,170.833 202.5,171.5C 198.08,175.93 193.413,179.93 188.5,183.5C 188.5,183.833 188.5,184.167 188.5,184.5C 187.508,184.328 186.842,184.662 186.5,185.5C 185.833,185.5 185.167,185.5 184.5,185.5C 185.234,184.292 185.567,182.959 185.5,181.5C 184.5,181.5 183.5,181.5 182.5,181.5C 185.231,177.766 188.564,174.766 192.5,172.5C 196.1,170.57 199.1,167.903 201.5,164.5C 208.081,162.253 212.748,157.919 215.5,151.5C 218.573,149.431 220.906,146.764 222.5,143.5C 226.316,139.239 230.149,134.906 234,130.5C 234.483,129.552 234.649,128.552 234.5,127.5C 235.5,125.833 236.833,124.5 238.5,123.5 Z"/></g>
<g><path style="opacity:1" fill="#730c82" d="M 371.5,140.5 C 369.376,146.682 365.376,148.682 359.5,146.5C 362.942,147.172 365.609,146.172 367.5,143.5C 368.833,142.5 370.167,141.5 371.5,140.5 Z"/></g>
<g><path style="opacity:1" fill="#7c4f84" d="M 422.5,139.5 C 422.5,139.833 422.5,140.167 422.5,140.5C 418.307,143.197 413.64,144.197 408.5,143.5C 406.5,143.5 404.5,143.5 402.5,143.5C 407.316,142.674 412.316,142.174 417.5,142C 418.9,140.562 420.567,139.729 422.5,139.5 Z"/></g>
<g><path style="opacity:1" fill="#500a5b" d="M 356.5,143.5 C 358.156,144.146 359.823,144.813 361.5,145.5C 363.516,144.822 365.516,144.156 367.5,143.5C 365.609,146.172 362.942,147.172 359.5,146.5C 358.508,146.672 357.842,146.338 357.5,145.5C 357.167,144.833 356.833,144.167 356.5,143.5 Z"/></g>
<g><path style="opacity:1" fill="#f4d1f6" d="M 402.5,143.5 C 404.5,143.5 406.5,143.5 408.5,143.5C 406.039,144.531 403.373,145.198 400.5,145.5C 400.675,147.621 400.341,149.621 399.5,151.5C 399.167,151.5 398.833,151.5 398.5,151.5C 398.5,149.167 398.5,146.833 398.5,144.5C 398.833,144.5 399.167,144.5 399.5,144.5C 400.791,144.737 401.791,144.404 402.5,143.5 Z"/></g>
<g><path style="opacity:1" fill="#460851" d="M 243.5,124.5 C 242.672,128.001 240.672,130.668 237.5,132.5C 234.866,138.103 231.533,143.103 227.5,147.5C 222.806,150.861 218.806,154.861 215.5,159.5C 219.35,153.138 224.184,147.471 230,142.5C 233.12,136.57 236.953,131.237 241.5,126.5C 241.833,125.5 242.5,124.833 243.5,124.5 Z"/></g>
<g><path style="opacity:1" fill="#6f4f76" d="M 222.5,143.5 C 220.906,146.764 218.573,149.431 215.5,151.5C 217.094,148.236 219.427,145.569 222.5,143.5 Z"/></g>
<g><path style="opacity:1" fill="#4f2f55" d="M 215.5,151.5 C 212.748,157.919 208.081,162.253 201.5,164.5C 203.833,161.833 206.167,159.167 208.5,156.5C 210.64,154.542 212.973,152.875 215.5,151.5 Z"/></g>
<g><path style="opacity:1" fill="#4e095c" d="M 215.5,159.5 C 212.473,163.194 209.14,166.527 205.5,169.5C 207.806,165.194 211.139,161.861 215.5,159.5 Z"/></g>
<g><path style="opacity:1" fill="#89179e" d="M 227.5,147.5 C 225.003,150.355 223.336,153.688 222.5,157.5C 216.592,160.738 211.592,165.071 207.5,170.5C 204.048,173.701 200.382,176.701 196.5,179.5C 198.885,177.116 200.885,174.45 202.5,171.5C 203.5,170.833 204.5,170.167 205.5,169.5C 209.14,166.527 212.473,163.194 215.5,159.5C 218.806,154.861 222.806,150.861 227.5,147.5 Z"/></g>
<g><path style="opacity:1" fill="#734e78" d="M 201.5,164.5 C 199.1,167.903 196.1,170.57 192.5,172.5C 194.9,169.097 197.9,166.43 201.5,164.5 Z"/></g>
<g><path style="opacity:1" fill="#f7ebf6" d="M 208.5,156.5 C 206.167,159.167 203.833,161.833 201.5,164.5C 197.9,166.43 194.9,169.097 192.5,172.5C 188.564,174.766 185.231,177.766 182.5,181.5C 181.5,182.167 180.5,182.833 179.5,183.5C 179.238,182.022 179.571,180.689 180.5,179.5C 183.745,178.26 185.412,175.927 185.5,172.5C 184.5,172.5 183.5,172.5 182.5,172.5C 182.703,170.61 182.037,169.11 180.5,168C 182.902,167.186 185.235,167.353 187.5,168.5C 186.494,169.396 186.494,170.062 187.5,170.5C 189.578,168.014 192.245,167.014 195.5,167.5C 195.302,165.425 195.135,163.425 195,161.5C 197.948,161.923 200.781,161.256 203.5,159.5C 203.496,155.67 205.162,154.67 208.5,156.5 Z"/></g>
<g><path style="opacity:1" fill="#32013d" d="M 250.5,171.5 C 252.391,173.836 252.891,176.502 252,179.5C 251.329,180.252 250.496,180.586 249.5,180.5C 247.901,180.768 246.568,180.434 245.5,179.5C 250.123,180.592 251.956,178.925 251,174.5C 250.261,173.426 249.261,172.759 248,172.5C 246.357,173.315 244.857,174.315 243.5,175.5C 244.445,172.013 246.778,170.68 250.5,171.5 Z"/></g>
<g><path style="opacity:1" fill="#370042" d="M 287.5,171.5 C 290.188,171.166 292.521,171.832 294.5,173.5C 294.768,175.099 294.434,176.432 293.5,177.5C 293.108,172.812 290.775,171.478 286.5,173.5C 286.833,172.833 287.167,172.167 287.5,171.5 Z"/></g>
<g><path style="opacity:1" fill="#b9b7b9" d="M 400.5,169.5 C 400.867,176.415 400.201,183.081 398.5,189.5C 398.735,182.646 399.402,175.979 400.5,169.5 Z"/></g>
<g><path style="opacity:1" fill="#120017" d="M 245.5,179.5 C 243.896,178.713 243.229,177.38 243.5,175.5C 244.857,174.315 246.357,173.315 248,172.5C 249.261,172.759 250.261,173.426 251,174.5C 251.956,178.925 250.123,180.592 245.5,179.5 Z"/></g>
<g><path style="opacity:1" fill="#9f12b0" d="M 197.5,207.5 C 200.883,205.831 204.216,204.164 207.5,202.5C 211.573,201.413 213.239,198.746 212.5,194.5C 216.531,194.966 218.531,193.133 218.5,189C 217.564,185.227 215.231,183.061 211.5,182.5C 205.923,182.144 200.59,181.144 195.5,179.5C 195.833,179.5 196.167,179.5 196.5,179.5C 200.382,176.701 204.048,173.701 207.5,170.5C 204.816,172.871 203.482,175.871 203.5,179.5C 206.187,179.664 208.854,179.497 211.5,179C 212.865,177.318 214.365,177.151 216,178.5C 217.009,176.975 217.509,175.308 217.5,173.5C 220.86,174.21 222.693,172.876 223,169.5C 223.497,172.146 223.664,174.813 223.5,177.5C 217.906,178.244 217.239,180.411 221.5,184C 221.167,184.333 220.833,184.667 220.5,185C 224.577,187.359 224.243,188.859 219.5,189.5C 219.657,190.873 219.49,192.207 219,193.5C 215.95,195.549 213.617,198.216 212,201.5C 211.32,203.976 212.153,205.809 214.5,207C 211.564,208.649 208.564,210.149 205.5,211.5C 204.813,209.726 203.98,208.059 203,206.5C 201.301,207.406 199.467,207.739 197.5,207.5 Z"/></g>
<g><path style="opacity:1" fill="#32043c" d="M 398.5,151.5 C 398.833,151.5 399.167,151.5 399.5,151.5C 397.011,153.655 395.344,156.322 394.5,159.5C 393.671,166.655 393.171,173.989 393,181.5C 392.617,182.056 392.117,182.389 391.5,182.5C 391.334,174.826 391.5,167.159 392,159.5C 393.246,156.087 395.413,153.421 398.5,151.5 Z"/></g>
<g><path style="opacity:1" fill="#62156d" d="M 202.5,171.5 C 200.885,174.45 198.885,177.116 196.5,179.5C 196.167,179.5 195.833,179.5 195.5,179.5C 193.156,180.917 190.823,182.25 188.5,183.5C 193.413,179.93 198.08,175.93 202.5,171.5 Z"/></g>
<g><path style="opacity:1" fill="#120116" d="M 293.5,177.5 C 290.079,181.637 287.413,181.137 285.5,176C 285.528,174.93 285.861,174.097 286.5,173.5C 290.775,171.478 293.108,172.812 293.5,177.5 Z"/></g>
<g><path style="opacity:1" fill="#60086e" d="M 287.5,171.5 C 287.167,172.167 286.833,172.833 286.5,173.5C 285.861,174.097 285.528,174.93 285.5,176C 287.413,181.137 290.079,181.637 293.5,177.5C 294.434,176.432 294.768,175.099 294.5,173.5C 295.831,176.061 295.498,178.561 293.5,181C 290.469,181.495 287.469,181.329 284.5,180.5C 283.833,178.181 283.666,175.847 284,173.5C 284.816,172.177 285.983,171.511 287.5,171.5 Z"/></g>
<g><path style="opacity:1" fill="#5a066a" d="M 250.5,171.5 C 246.778,170.68 244.445,172.013 243.5,175.5C 243.229,177.38 243.896,178.713 245.5,179.5C 246.568,180.434 247.901,180.768 249.5,180.5C 245.068,182.595 242.735,181.095 242.5,176C 243.093,170.741 245.76,169.241 250.5,171.5 Z"/></g>
<g><path style="opacity:1" fill="#17011b" d="M 394.5,159.5 C 395.043,169.472 394.376,179.305 392.5,189C 392.933,190.928 393.6,192.761 394.5,194.5C 393.038,198.412 391.372,202.078 389.5,205.5C 389.998,200.848 390.331,196.181 390.5,191.5C 390.264,188.391 390.597,185.391 391.5,182.5C 392.117,182.389 392.617,182.056 393,181.5C 393.171,173.989 393.671,166.655 394.5,159.5 Z"/></g>
<g><path style="opacity:1" fill="#9b2e9e" d="M 195.5,179.5 C 200.59,181.144 205.923,182.144 211.5,182.5C 203.764,182.45 196.097,183.117 188.5,184.5C 188.5,184.167 188.5,183.833 188.5,183.5C 190.823,182.25 193.156,180.917 195.5,179.5 Z"/></g>
<g><path style="opacity:1" fill="#f9cdd8" d="M 177.5,194.5 C 177.5,193.833 177.5,193.167 177.5,192.5C 178.811,189.189 181.145,186.855 184.5,185.5C 185.167,185.5 185.833,185.5 186.5,185.5C 191.839,185.314 197.172,184.981 202.5,184.5C 206.982,184.46 211.316,185.126 215.5,186.5C 215.5,188.5 215.5,190.5 215.5,192.5C 214.178,192.33 213.011,192.663 212,193.5C 211.187,195.436 210.687,197.436 210.5,199.5C 205.46,200.674 200.46,202.174 195.5,204C 191.833,204.667 188.167,204.667 184.5,204C 182.024,200.855 179.69,197.688 177.5,194.5 Z"/></g>
<g><path style="opacity:1" fill="#75257e" d="M 176.5,192.5 C 176.833,192.5 177.167,192.5 177.5,192.5C 177.5,193.167 177.5,193.833 177.5,194.5C 177.5,195.167 177.5,195.833 177.5,196.5C 174.803,194.955 172.803,195.621 171.5,198.5C 170.167,198.833 168.833,199.167 167.5,199.5C 169.922,196.44 172.922,194.107 176.5,192.5 Z"/></g>
<g><path style="opacity:1" fill="#27042d" d="M 176.5,192.5 C 172.922,194.107 169.922,196.44 167.5,199.5C 167.167,199.5 166.833,199.5 166.5,199.5C 166.167,199.5 165.833,199.5 165.5,199.5C 168.231,195.714 171.898,193.38 176.5,192.5 Z"/></g>
<g><path style="opacity:1" fill="#f7b1ea" d="M 211.5,182.5 C 215.231,183.061 217.564,185.227 218.5,189C 218.531,193.133 216.531,194.966 212.5,194.5C 213.239,198.746 211.573,201.413 207.5,202.5C 203.447,203.35 199.447,204.516 195.5,206C 191.833,206.667 188.167,206.667 184.5,206C 181.467,203.165 179.134,199.998 177.5,196.5C 177.5,195.833 177.5,195.167 177.5,194.5C 179.69,197.688 182.024,200.855 184.5,204C 188.167,204.667 191.833,204.667 195.5,204C 200.46,202.174 205.46,200.674 210.5,199.5C 210.687,197.436 211.187,195.436 212,193.5C 213.011,192.663 214.178,192.33 215.5,192.5C 215.5,190.5 215.5,188.5 215.5,186.5C 211.316,185.126 206.982,184.46 202.5,184.5C 197.172,184.981 191.839,185.314 186.5,185.5C 186.842,184.662 187.508,184.328 188.5,184.5C 196.097,183.117 203.764,182.45 211.5,182.5 Z"/></g>
<g><path style="opacity:1" fill="#831596" d="M 248.5,213.5 C 246.031,210.98 244.197,207.98 243,204.5C 241.871,202.859 240.371,201.859 238.5,201.5C 236.585,201.216 234.919,201.549 233.5,202.5C 231.744,203.552 231.077,205.219 231.5,207.5C 228.782,204.576 229.115,201.743 232.5,199C 237.894,197.981 242.061,199.814 245,204.5C 246.915,207.235 248.082,210.235 248.5,213.5 Z"/></g>
<g><path style="opacity:1" fill="#990eac" d="M 196.5,207.5 C 190.978,208.425 185.478,208.758 180,208.5C 176.936,207.101 174.936,204.768 174,201.5C 173.626,202.416 173.126,203.25 172.5,204C 168.801,206.352 164.801,207.852 160.5,208.5C 160.55,210.59 159.55,211.923 157.5,212.5C 156.548,214.045 156.215,215.712 156.5,217.5C 153.813,217.336 151.146,217.503 148.5,218C 147.211,219.802 145.544,220.969 143.5,221.5C 151.4,214.388 159.067,207.055 166.5,199.5C 166.833,199.5 167.167,199.5 167.5,199.5C 168.833,199.167 170.167,198.833 171.5,198.5C 172.847,197.972 174.181,197.805 175.5,198C 177.204,200.237 178.204,202.737 178.5,205.5C 184.333,207.232 190.333,207.899 196.5,207.5 Z"/></g>
<g><path style="opacity:1" fill="#9924a1" d="M 177.5,196.5 C 179.134,199.998 181.467,203.165 184.5,206C 188.167,206.667 191.833,206.667 195.5,206C 199.447,204.516 203.447,203.35 207.5,202.5C 204.216,204.164 200.883,205.831 197.5,207.5C 197.167,207.5 196.833,207.5 196.5,207.5C 190.333,207.899 184.333,207.232 178.5,205.5C 178.204,202.737 177.204,200.237 175.5,198C 174.181,197.805 172.847,197.972 171.5,198.5C 172.803,195.621 174.803,194.955 177.5,196.5 Z"/></g>
<g><path style="opacity:1" fill="#d6d2d7" d="M 398.5,189.5 C 398.589,192.709 398.256,195.875 397.5,199C 399.086,202.279 399.253,205.446 398,208.5C 397.667,207.167 397.333,205.833 397,204.5C 396.721,207.457 395.887,210.123 394.5,212.5C 395.313,204.615 396.647,196.949 398.5,189.5 Z"/></g>
<g><path style="opacity:1" fill="#36023f" d="M 233.5,202.5 C 233.5,204.5 233.5,206.5 233.5,208.5C 232.833,208.167 232.167,207.833 231.5,207.5C 231.077,205.219 231.744,203.552 233.5,202.5 Z"/></g>
<g><path style="opacity:1" fill="#150c16" d="M 182.5,181.5 C 183.5,181.5 184.5,181.5 185.5,181.5C 185.567,182.959 185.234,184.292 184.5,185.5C 181.145,186.855 178.811,189.189 177.5,192.5C 177.167,192.5 176.833,192.5 176.5,192.5C 171.898,193.38 168.231,195.714 165.5,199.5C 153.177,209.824 141.177,220.491 129.5,231.5C 127.856,231.19 126.856,230.19 126.5,228.5C 126.5,228.167 126.5,227.833 126.5,227.5C 143.583,212.079 161.25,197.413 179.5,183.5C 180.5,182.833 181.5,182.167 182.5,181.5 Z"/></g>
<g><path style="opacity:1" fill="#41064c" d="M 390.5,191.5 C 390.331,196.181 389.998,200.848 389.5,205.5C 388.826,210.894 387.826,216.228 386.5,221.5C 385.349,223.779 384.349,226.112 383.5,228.5C 385.754,216.111 388.088,203.778 390.5,191.5 Z"/></g>
<g><path style="opacity:1" fill="#3f0649" d="M 238.5,201.5 C 240.371,201.859 241.871,202.859 243,204.5C 244.197,207.98 246.031,210.98 248.5,213.5C 250.19,215.342 252.19,216.675 254.5,217.5C 251.941,217.61 249.608,216.944 247.5,215.5C 243.978,211.112 240.978,206.445 238.5,201.5 Z"/></g>
<g><path style="opacity:1" fill="#120016" d="M 238.5,201.5 C 240.978,206.445 243.978,211.112 247.5,215.5C 249.608,216.944 251.941,217.61 254.5,217.5C 264.134,219.584 272.8,217.417 280.5,211C 281.793,210.51 283.127,210.343 284.5,210.5C 284.385,212.947 283.385,214.947 281.5,216.5C 277.577,216.809 274.243,218.142 271.5,220.5C 263.3,222.18 254.967,222.846 246.5,222.5C 242.506,220.506 239.506,217.506 237.5,213.5C 236.92,211.251 235.587,209.585 233.5,208.5C 233.5,206.5 233.5,204.5 233.5,202.5C 234.919,201.549 236.585,201.216 238.5,201.5 Z"/></g>
<g><path style="opacity:1" fill="#8d13a0" d="M 231.5,207.5 C 232.167,207.833 232.833,208.167 233.5,208.5C 234.08,210.749 235.413,212.415 237.5,213.5C 239.506,217.506 242.506,220.506 246.5,222.5C 252.653,223.653 258.986,223.82 265.5,223C 267.611,222.155 269.611,221.322 271.5,220.5C 275.277,220.066 278.61,218.733 281.5,216.5C 286.617,215.636 287.617,213.303 284.5,209.5C 283.081,208.549 281.415,208.216 279.5,208.5C 281.3,206.95 283.467,205.95 286,205.5C 289.77,210.508 289.27,215.008 284.5,219C 282.833,219.333 281.167,219.667 279.5,220C 279.07,220.92 278.736,221.753 278.5,222.5C 274.426,221.674 270.426,222.174 266.5,224C 258.812,224.831 251.145,224.665 243.5,223.5C 241.363,222.92 239.53,221.92 238,220.5C 236.796,221.471 236.296,222.471 236.5,223.5C 235.585,222.672 234.919,221.672 234.5,220.5C 236.415,216.594 235.582,213.594 232,211.5C 231.51,210.207 231.343,208.873 231.5,207.5 Z"/></g>
<g><path style="opacity:1" fill="#3b0345" d="M 271.5,220.5 C 269.611,221.322 267.611,222.155 265.5,223C 258.986,223.82 252.653,223.653 246.5,222.5C 254.967,222.846 263.3,222.18 271.5,220.5 Z"/></g>
<g><path style="opacity:1" fill="#390345" d="M 281.5,216.5 C 278.61,218.733 275.277,220.066 271.5,220.5C 274.243,218.142 277.577,216.809 281.5,216.5 Z"/></g>
<g><path style="opacity:1" fill="#2f0438" d="M 284.5,209.5 C 287.617,213.303 286.617,215.636 281.5,216.5C 283.385,214.947 284.385,212.947 284.5,210.5C 283.127,210.343 281.793,210.51 280.5,211C 272.8,217.417 264.134,219.584 254.5,217.5C 263.791,217.901 272.124,215.401 279.5,210C 281.134,209.506 282.801,209.34 284.5,209.5 Z"/></g>
<g><path style="opacity:1" fill="#43064c" d="M 233.5,208.5 C 235.587,209.585 236.92,211.251 237.5,213.5C 235.413,212.415 234.08,210.749 233.5,208.5 Z"/></g>
<g><path style="opacity:1" fill="#7b158c" d="M 279.5,208.5 C 281.415,208.216 283.081,208.549 284.5,209.5C 282.801,209.34 281.134,209.506 279.5,210C 272.124,215.401 263.791,217.901 254.5,217.5C 252.19,216.675 250.19,215.342 248.5,213.5C 257.083,216.643 265.416,216.143 273.5,212C 274.45,209.09 276.45,207.923 279.5,208.5 Z"/></g>
<g><path style="opacity:1" fill="#9213a6" d="M 394.5,142.5 C 396.062,142.733 397.395,143.4 398.5,144.5C 398.5,146.833 398.5,149.167 398.5,151.5C 395.413,153.421 393.246,156.087 392,159.5C 391.5,167.159 391.334,174.826 391.5,182.5C 390.597,185.391 390.264,188.391 390.5,191.5C 388.088,203.778 385.754,216.111 383.5,228.5C 381.517,231.799 380.517,235.466 380.5,239.5C 379.307,239.97 378.64,240.97 378.5,242.5C 378.003,244.818 377.67,247.152 377.5,249.5C 376.539,251.265 376.205,253.265 376.5,255.5C 372.579,262.609 369.246,269.942 366.5,277.5C 367.747,273.285 368.58,268.952 369,264.5C 372.677,255.44 375.344,246.106 377,236.5C 377.333,237.167 377.667,237.833 378,238.5C 379.126,234.251 379.792,229.918 380,225.5C 380.419,224.328 381.085,223.328 382,222.5C 382.074,214.375 383.074,206.375 385,198.5C 385.654,199.696 386.154,199.696 386.5,198.5C 386.572,191.102 386.572,183.769 386.5,176.5C 388.604,169.894 388.937,163.228 387.5,156.5C 388.552,156.649 389.552,156.483 390.5,156C 391.747,154.054 393.08,152.22 394.5,150.5C 395.729,147.801 395.729,145.135 394.5,142.5 Z"/></g>
<g><path style="opacity:1" fill="#9d18ab" d="M 332.5,199.5 C 336.192,200.354 338.859,202.521 340.5,206C 342.246,206.471 343.913,207.138 345.5,208C 344.939,209.566 345.606,210.899 347.5,212C 348.549,212.492 349.549,212.326 350.5,211.5C 351.655,214.446 351.821,217.446 351,220.5C 349.581,221.46 348.081,222.293 346.5,223C 347.337,224.011 347.67,225.178 347.5,226.5C 336.841,226.835 326.174,227.168 315.5,227.5C 311.405,227.537 308.239,225.87 306,222.5C 305.282,223.451 304.449,223.617 303.5,223C 303.527,214.806 306.86,208.306 313.5,203.5C 314.446,203.987 315.446,204.32 316.5,204.5C 322.249,203.996 327.916,203.163 333.5,202C 332.748,201.329 332.414,200.496 332.5,199.5 Z"/></g>
<g><path style="opacity:1" fill="#e996df" d="M 307.5,219.5 C 307.833,219.5 308.167,219.5 308.5,219.5C 309.167,219.833 309.833,220.167 310.5,220.5C 311.263,221.268 312.263,221.768 313.5,222C 321.067,222.09 328.4,222.924 335.5,224.5C 327.837,224.022 320.17,223.522 312.5,223C 310.119,222.777 308.453,221.61 307.5,219.5 Z"/></g>
<g><path style="opacity:1" fill="#fbc7e3" d="M 344.5,219.5 C 343.268,224.584 340.268,226.25 335.5,224.5C 328.4,222.924 321.067,222.09 313.5,222C 312.263,221.768 311.263,221.268 310.5,220.5C 317.013,220.883 323.513,221.217 330,221.5C 334.077,221.727 337.91,220.893 341.5,219C 344.407,215.882 343.74,213.715 339.5,212.5C 337.179,219.49 332.513,220.99 325.5,217C 323.689,215.959 323.355,214.793 324.5,213.5C 324.5,214.167 324.833,214.5 325.5,214.5C 327.117,215.972 329.117,216.639 331.5,216.5C 333.333,216.415 334.666,215.748 335.5,214.5C 334.969,212.376 333.635,210.876 331.5,210C 336.343,208.786 340.51,209.953 344,213.5C 344.495,215.473 344.662,217.473 344.5,219.5 Z"/></g>
<g><path style="opacity:1" fill="#fccfdb" d="M 318.5,208.5 C 322.555,208.176 326.555,208.509 330.5,209.5C 328.193,210.492 326.193,211.825 324.5,213.5C 323.355,214.793 323.689,215.959 325.5,217C 332.513,220.99 337.179,219.49 339.5,212.5C 343.74,213.715 344.407,215.882 341.5,219C 337.91,220.893 334.077,221.727 330,221.5C 323.513,221.217 317.013,220.883 310.5,220.5C 309.833,220.167 309.167,219.833 308.5,219.5C 309.779,213.927 313.112,210.26 318.5,208.5 Z"/></g>
<g><path style="opacity:1" fill="#fbbaee" d="M 318.5,208.5 C 313.112,210.26 309.779,213.927 308.5,219.5C 308.167,219.5 307.833,219.5 307.5,219.5C 305.453,215.097 306.787,211.93 311.5,210C 313.74,209.023 316.073,208.523 318.5,208.5 Z"/></g>
<g><path style="opacity:1" fill="#8b3586" d="M 335.5,214.5 C 334.666,215.748 333.333,216.415 331.5,216.5C 329.117,216.639 327.117,215.972 325.5,214.5C 328.681,213.41 332.015,213.41 335.5,214.5 Z"/></g>
<g><path style="opacity:1" fill="#f6b4e5" d="M 344.5,219.5 C 344.662,217.473 344.495,215.473 344,213.5C 340.51,209.953 336.343,208.786 331.5,210C 333.635,210.876 334.969,212.376 335.5,214.5C 332.015,213.41 328.681,213.41 325.5,214.5C 324.833,214.5 324.5,214.167 324.5,213.5C 326.193,211.825 328.193,210.492 330.5,209.5C 326.555,208.509 322.555,208.176 318.5,208.5C 325.731,205.971 333.065,206.138 340.5,209C 345.796,211.368 347.129,214.868 344.5,219.5 Z"/></g>
<g><path style="opacity:1" fill="#120116" d="M 386.5,221.5 C 387.146,223.156 387.813,224.823 388.5,226.5C 387.954,228.135 387.62,229.801 387.5,231.5C 386.5,231.5 385.5,231.5 384.5,231.5C 384.083,235.835 383.583,240.168 383,244.5C 380.499,246.318 379.333,248.818 379.5,252C 380.301,254.797 380.634,257.464 380.5,260C 378.97,261.12 377.303,261.954 375.5,262.5C 375.448,260.097 375.781,257.764 376.5,255.5C 376.205,253.265 376.539,251.265 377.5,249.5C 379.243,246.505 380.243,243.171 380.5,239.5C 382.318,236.156 383.318,232.489 383.5,228.5C 384.349,226.112 385.349,223.779 386.5,221.5 Z"/></g>
<g><path style="opacity:1" fill="#cbcccb" d="M 393.5,217.5 C 392.537,221.87 392.537,226.203 393.5,230.5C 392.675,231.386 391.675,231.719 390.5,231.5C 390.59,234.152 389.924,236.485 388.5,238.5C 389.723,231.28 391.39,224.28 393.5,217.5 Z"/></g>
<g><path style="opacity:1" fill="#3f054a" d="M 165.5,199.5 C 165.833,199.5 166.167,199.5 166.5,199.5C 159.067,207.055 151.4,214.388 143.5,221.5C 136.282,227.21 129.449,233.543 123,240.5C 122.373,242.927 121.206,244.927 119.5,246.5C 117.605,247.973 115.939,249.64 114.5,251.5C 116.778,247.534 119.112,243.534 121.5,239.5C 124.521,237.146 127.188,234.479 129.5,231.5C 141.177,220.491 153.177,209.824 165.5,199.5 Z"/></g>
<g><path style="opacity:1" fill="#970fab" d="M 143.5,221.5 C 143.64,223.124 142.973,224.29 141.5,225C 143.229,226.789 143.896,228.956 143.5,231.5C 141.088,231.244 139.421,232.244 138.5,234.5C 140.297,235.695 141.297,237.362 141.5,239.5C 138.91,239.604 136.577,238.937 134.5,237.5C 132.218,238.223 129.884,238.557 127.5,238.5C 127.67,239.822 127.337,240.989 126.5,242C 124.283,243.723 121.95,245.223 119.5,246.5C 121.206,244.927 122.373,242.927 123,240.5C 129.449,233.543 136.282,227.21 143.5,221.5 Z"/></g>
<g><path style="opacity:1" fill="#4d0457" d="M 383.5,228.5 C 383.318,232.489 382.318,236.156 380.5,239.5C 380.517,235.466 381.517,231.799 383.5,228.5 Z"/></g>
<g><path style="opacity:1" fill="#f7def8" d="M 126.5,227.5 C 126.5,227.833 126.5,228.167 126.5,228.5C 125.508,228.328 124.842,228.662 124.5,229.5C 123.448,229.351 122.448,229.517 121.5,230C 116.18,234.474 111.846,239.641 108.5,245.5C 105.885,247.379 103.719,249.712 102,252.5C 100.059,256.722 97.8924,260.722 95.5,264.5C 95.8133,260.67 97.3133,257.337 100,254.5C 100.494,252.866 100.66,251.199 100.5,249.5C 102.359,249.539 103.692,248.706 104.5,247C 104.167,246 103.833,245 103.5,244C 104.793,243.51 106.127,243.343 107.5,243.5C 107.238,242.022 107.571,240.689 108.5,239.5C 111.344,237.903 113.344,235.57 114.5,232.5C 116.911,231.546 119.077,230.212 121,228.5C 122.766,227.767 124.599,227.433 126.5,227.5 Z"/></g>
<g><path style="opacity:1" fill="#682970" d="M 124.5,229.5 C 119.803,234.867 115.47,240.533 111.5,246.5C 110.691,248.071 110.357,249.738 110.5,251.5C 109.041,251.433 107.708,251.766 106.5,252.5C 106.586,251.504 106.252,250.671 105.5,250C 107.439,249.092 108.439,247.592 108.5,245.5C 111.846,239.641 116.18,234.474 121.5,230C 122.448,229.517 123.448,229.351 124.5,229.5 Z"/></g>
<g><path style="opacity:1" fill="#43044e" d="M 380.5,239.5 C 380.243,243.171 379.243,246.505 377.5,249.5C 377.67,247.152 378.003,244.818 378.5,242.5C 378.64,240.97 379.307,239.97 380.5,239.5 Z"/></g>
<g><path style="opacity:1" fill="#b2b2b2" d="M 386.5,245.5 C 386.59,248.152 385.924,250.485 384.5,252.5C 384.41,249.848 385.076,247.515 386.5,245.5 Z"/></g>
<g><path style="opacity:1" fill="#b9b9ba" d="M 384.5,252.5 C 384.346,257.289 383.013,261.622 380.5,265.5C 381.463,260.951 382.796,256.617 384.5,252.5 Z"/></g>
<g><path style="opacity:1" fill="#893a90" d="M 108.5,245.5 C 108.439,247.592 107.439,249.092 105.5,250C 106.252,250.671 106.586,251.504 106.5,252.5C 105.89,253.391 105.557,254.391 105.5,255.5C 104.143,256.59 103.143,257.924 102.5,259.5C 101.761,259.369 101.094,259.536 100.5,260C 98.7906,262.241 97.1239,264.408 95.5,266.5C 95.5,265.833 95.5,265.167 95.5,264.5C 97.8924,260.722 100.059,256.722 102,252.5C 103.719,249.712 105.885,247.379 108.5,245.5 Z"/></g>
<g><path style="opacity:1" fill="#871598" d="M 119.5,246.5 C 117.883,249.949 116.716,253.616 116,257.5C 113.3,259.234 111.3,261.568 110,264.5C 108.961,271.452 107.461,278.285 105.5,285C 105.667,285.833 105.833,286.667 106,287.5C 109.322,286.868 112.489,285.868 115.5,284.5C 114.833,285.5 114.167,286.5 113.5,287.5C 111.313,288.758 108.98,289.758 106.5,290.5C 105.5,290.5 104.5,290.5 103.5,290.5C 103.472,285.138 103.806,279.805 104.5,274.5C 104.5,274.167 104.5,273.833 104.5,273.5C 106.834,268.164 109.167,262.83 111.5,257.5C 111.755,255.033 112.755,253.033 114.5,251.5C 115.939,249.64 117.605,247.973 119.5,246.5 Z"/></g>
<g><path style="opacity:1" fill="#3f0449" d="M 105.5,255.5 C 100.814,268.427 97.9812,281.76 97,295.5C 95.8904,297.037 94.3904,297.703 92.5,297.5C 94.1436,296.684 95.3103,295.35 96,293.5C 96.0537,281.733 98.2204,270.399 102.5,259.5C 103.143,257.924 104.143,256.59 105.5,255.5 Z"/></g>
<g><path style="opacity:1" fill="#0b050d" d="M 399.5,151.5 C 405.054,153.084 405.887,156.084 402,160.5C 401.047,163.432 400.547,166.432 400.5,169.5C 399.402,175.979 398.735,182.646 398.5,189.5C 396.647,196.949 395.313,204.615 394.5,212.5C 393.549,213.919 393.216,215.585 393.5,217.5C 391.39,224.28 389.723,231.28 388.5,238.5C 387.076,240.515 386.41,242.848 386.5,245.5C 385.076,247.515 384.41,249.848 384.5,252.5C 382.796,256.617 381.463,260.951 380.5,265.5C 373.749,281.675 366.416,297.675 358.5,313.5C 357.71,314.609 357.21,315.942 357,317.5C 355.482,318.163 354.315,319.163 353.5,320.5C 350.555,326.104 347.221,331.438 343.5,336.5C 342.85,336.196 342.183,335.863 341.5,335.5C 340.016,337.074 338.349,338.407 336.5,339.5C 336.306,341.07 336.306,342.57 336.5,344C 333.827,347.091 330.66,349.591 327,351.5C 326.536,350.906 326.369,350.239 326.5,349.5C 328.242,346.357 330.242,343.357 332.5,340.5C 333.833,338.833 335.167,337.167 336.5,335.5C 338.914,334.089 340.581,332.089 341.5,329.5C 341.66,327.847 342.326,326.514 343.5,325.5C 345.167,324.5 346.5,323.167 347.5,321.5C 352.326,317.825 352.659,313.658 348.5,309C 348.833,308.5 349.167,308 349.5,307.5C 351.768,308.544 354.101,308.711 356.5,308C 357.482,305.262 358.148,302.428 358.5,299.5C 360.584,296.947 361.917,293.947 362.5,290.5C 364.448,288.68 365.448,286.346 365.5,283.5C 369.591,278.217 372.091,272.217 373,265.5C 373.377,264.058 374.21,263.058 375.5,262.5C 377.303,261.954 378.97,261.12 380.5,260C 380.634,257.464 380.301,254.797 379.5,252C 379.333,248.818 380.499,246.318 383,244.5C 383.583,240.168 384.083,235.835 384.5,231.5C 385.5,231.5 386.5,231.5 387.5,231.5C 387.62,229.801 387.954,228.135 388.5,226.5C 387.813,224.823 387.146,223.156 386.5,221.5C 387.826,216.228 388.826,210.894 389.5,205.5C 391.372,202.078 393.038,198.412 394.5,194.5C 393.6,192.761 392.933,190.928 392.5,189C 394.376,179.305 395.043,169.472 394.5,159.5C 395.344,156.322 397.011,153.655 399.5,151.5 Z"/></g>
<g><path style="opacity:1" fill="#950ea9" d="M 335.5,255.5 C 331.289,262.607 328.122,270.274 326,278.5C 318.986,286.404 312.153,294.404 305.5,302.5C 307.372,298.073 309.538,293.739 312,289.5C 313.506,287.826 315.339,286.826 317.5,286.5C 317.351,285.448 317.517,284.448 318,283.5C 320.14,282.272 321.807,280.605 323,278.5C 325.846,271.477 328.846,264.477 332,257.5C 332.816,256.177 333.983,255.511 335.5,255.5 Z"/></g>
<g><path style="opacity:1" fill="#3b0443" d="M 111.5,257.5 C 109.167,262.83 106.834,268.164 104.5,273.5C 105.149,269.049 106.316,264.716 108,260.5C 109.039,259.29 110.206,258.29 111.5,257.5 Z"/></g>
<g><path style="opacity:1" fill="#17021b" d="M 126.5,228.5 C 126.856,230.19 127.856,231.19 129.5,231.5C 127.188,234.479 124.521,237.146 121.5,239.5C 119.112,243.534 116.778,247.534 114.5,251.5C 112.755,253.033 111.755,255.033 111.5,257.5C 110.206,258.29 109.039,259.29 108,260.5C 106.316,264.716 105.149,269.049 104.5,273.5C 104.5,273.833 104.5,274.167 104.5,274.5C 102.961,277.865 102.294,281.531 102.5,285.5C 102.601,288.7 103.268,291.7 104.5,294.5C 103.5,295.5 102.5,296.5 101.5,297.5C 100.181,304.99 100.181,312.323 101.5,319.5C 102.477,322.287 102.81,325.287 102.5,328.5C 101.265,328.279 100.265,327.612 99.5,326.5C 99.1667,327 98.8333,327.5 98.5,328C 98.7769,331.977 99.7769,335.644 101.5,339C 100.944,339.383 100.611,339.883 100.5,340.5C 98.7497,339.341 97.7497,337.674 97.5,335.5C 96.9791,331.519 96.6458,327.519 96.5,323.5C 96.5,316.167 96.5,308.833 96.5,301.5C 94.3792,301.325 92.3792,301.659 90.5,302.5C 89.0474,301.175 89.3808,300.342 91.5,300C 90.5842,299.722 89.9175,299.222 89.5,298.5C 89.5,298.167 89.5,297.833 89.5,297.5C 89.8333,297.5 90.1667,297.5 90.5,297.5C 91.1667,297.5 91.8333,297.5 92.5,297.5C 94.3904,297.703 95.8904,297.037 97,295.5C 97.9812,281.76 100.814,268.427 105.5,255.5C 105.557,254.391 105.89,253.391 106.5,252.5C 107.708,251.766 109.041,251.433 110.5,251.5C 110.357,249.738 110.691,248.071 111.5,246.5C 115.47,240.533 119.803,234.867 124.5,229.5C 124.842,228.662 125.508,228.328 126.5,228.5 Z"/></g>
<g><path style="opacity:1" fill="#fde7fd" d="M 95.5,264.5 C 95.5,265.167 95.5,265.833 95.5,266.5C 95.5,266.833 95.5,267.167 95.5,267.5C 91.3811,276.952 89.3811,286.952 89.5,297.5C 89.1667,297.5 88.8333,297.5 88.5,297.5C 88.2978,292.296 88.6311,287.129 89.5,282C 89.5607,280.289 88.8941,278.956 87.5,278C 88.1667,277.667 88.8333,277.333 89.5,277C 87.6751,275.534 87.1751,273.701 88,271.5C 88.5831,273.002 89.4164,274.335 90.5,275.5C 91.7241,271.545 93.3907,267.878 95.5,264.5 Z"/></g>
<g><path style="opacity:1" fill="#370440" d="M 376.5,255.5 C 375.781,257.764 375.448,260.097 375.5,262.5C 374.21,263.058 373.377,264.058 373,265.5C 372.091,272.217 369.591,278.217 365.5,283.5C 365.833,281.5 366.167,279.5 366.5,277.5C 369.246,269.942 372.579,262.609 376.5,255.5 Z"/></g>
<g><path style="opacity:1" fill="#9948a3" d="M 95.5,267.5 C 93.5162,277.438 91.8495,287.438 90.5,297.5C 90.1667,297.5 89.8333,297.5 89.5,297.5C 89.3811,286.952 91.3811,276.952 95.5,267.5 Z"/></g>
<g><path style="opacity:1" fill="#891a9a" d="M 102.5,259.5 C 98.2204,270.399 96.0537,281.733 96,293.5C 95.3103,295.35 94.1436,296.684 92.5,297.5C 91.8333,297.5 91.1667,297.5 90.5,297.5C 91.8495,287.438 93.5162,277.438 95.5,267.5C 95.5,267.167 95.5,266.833 95.5,266.5C 97.1239,264.408 98.7906,262.241 100.5,260C 101.094,259.536 101.761,259.369 102.5,259.5 Z"/></g>
<g><path style="opacity:1" fill="#2a0437" d="M 122.5,287.5 C 122.5,286.5 122.5,285.5 122.5,284.5C 119.257,284.914 116.257,285.914 113.5,287.5C 114.167,286.5 114.833,285.5 115.5,284.5C 118.261,283.08 121.261,282.413 124.5,282.5C 124.923,284.781 124.256,286.448 122.5,287.5 Z"/></g>
<g><path style="opacity:1" fill="#16001b" d="M 122.5,287.5 C 122.167,287.5 121.833,287.5 121.5,287.5C 116.371,289.565 111.371,291.898 106.5,294.5C 105.374,293.192 105.374,291.858 106.5,290.5C 108.98,289.758 111.313,288.758 113.5,287.5C 116.257,285.914 119.257,284.914 122.5,284.5C 122.5,285.5 122.5,286.5 122.5,287.5 Z"/></g>
<g><path style="opacity:1" fill="#8a149d" d="M 117.5,350.5 C 115.284,349.797 113.451,348.464 112,346.5C 111.062,343.743 109.562,341.41 107.5,339.5C 105.394,337.281 104.394,334.615 104.5,331.5C 103.43,320.86 103.263,310.193 104,299.5C 104.717,298.956 105.217,298.289 105.5,297.5C 109.836,294.541 114.502,292.041 119.5,290C 120.381,289.292 121.047,288.458 121.5,287.5C 121.833,287.5 122.167,287.5 122.5,287.5C 124.256,286.448 124.923,284.781 124.5,282.5C 121.261,282.413 118.261,283.08 115.5,284.5C 116.148,282.914 116.648,281.247 117,279.5C 120.4,280.54 123.9,281.206 127.5,281.5C 127.777,284.448 127.444,287.281 126.5,290C 118.476,290.707 111.809,294.04 106.5,300C 108.994,302.393 108.327,303.56 104.5,303.5C 104.334,311.174 104.5,318.841 105,326.5C 106.207,335.148 110.207,342.148 117,347.5C 117.483,348.448 117.649,349.448 117.5,350.5 Z"/></g>
<g><path style="opacity:1" fill="#31053c" d="M 365.5,283.5 C 365.448,286.346 364.448,288.68 362.5,290.5C 362.5,289.5 362.5,288.5 362.5,287.5C 363.143,285.924 364.143,284.59 365.5,283.5 Z"/></g>
<g><path style="opacity:1" fill="#980bae" d="M 351.5,295.5 C 347.719,293.415 343.719,293.082 339.5,294.5C 337.104,297.772 337.104,300.939 339.5,304C 339.43,304.765 339.097,305.265 338.5,305.5C 337.391,301.971 335.558,301.638 333,304.5C 333.422,302.068 332.755,299.735 331,297.5C 330.163,299.351 329.329,301.184 328.5,303C 327.207,303.49 325.873,303.657 324.5,303.5C 324.573,308.265 322.406,311.599 318,313.5C 317.888,316.447 316.388,317.78 313.5,317.5C 319.304,307.517 326.471,298.517 335,290.5C 336.748,287.338 338.748,284.338 341,281.5C 342.259,274.057 345.259,267.391 350,261.5C 350.424,251.1 346.257,248.767 337.5,254.5C 337.628,252.91 338.295,251.577 339.5,250.5C 343.39,248.946 347.057,249.279 350.5,251.5C 353.962,259.34 352.462,266.006 346,271.5C 345.952,274.329 344.952,276.663 343,278.5C 342.938,282.148 343.105,285.815 343.5,289.5C 342.448,289.351 341.448,289.517 340.5,290C 342.91,291.867 345.244,291.867 347.5,290C 345.044,287.841 345.71,287.008 349.5,287.5C 349.584,290.327 350.25,292.994 351.5,295.5 Z"/></g>
<g><path style="opacity:1" fill="#62106f" d="M 313.5,317.5 C 308.549,322.05 304.049,327.05 300,332.5C 298.871,334.141 297.371,335.141 295.5,335.5C 287.936,336.91 285.436,333.91 288,326.5C 291.195,325.149 293.028,322.815 293.5,319.5C 298.071,318.354 300.238,315.354 300,310.5C 303.031,306.926 306.531,303.926 310.5,301.5C 311.098,300.205 311.598,298.872 312,297.5C 315.038,294.797 317.705,291.797 320,288.5C 321.356,287.62 322.856,287.286 324.5,287.5C 327.081,282.281 329.581,276.948 332,271.5C 332.77,265.358 334.604,259.692 337.5,254.5C 346.257,248.767 350.424,251.1 350,261.5C 345.259,267.391 342.259,274.057 341,281.5C 338.748,284.338 336.748,287.338 335,290.5C 326.471,298.517 319.304,307.517 313.5,317.5 Z"/></g>
<g><path style="opacity:1" fill="#3f0749" d="M 104.5,274.5 C 103.806,279.805 103.472,285.138 103.5,290.5C 104.5,290.5 105.5,290.5 106.5,290.5C 105.374,291.858 105.374,293.192 106.5,294.5C 111.371,291.898 116.371,289.565 121.5,287.5C 121.047,288.458 120.381,289.292 119.5,290C 114.502,292.041 109.836,294.541 105.5,297.5C 103.983,297.511 102.816,298.177 102,299.5C 101.5,306.158 101.334,312.825 101.5,319.5C 100.181,312.323 100.181,304.99 101.5,297.5C 102.5,296.5 103.5,295.5 104.5,294.5C 103.268,291.7 102.601,288.7 102.5,285.5C 102.294,281.531 102.961,277.865 104.5,274.5 Z"/></g>
<g><path style="opacity:1" fill="#710a81" d="M 337.5,254.5 C 334.604,259.692 332.77,265.358 332,271.5C 329.581,276.948 327.081,282.281 324.5,287.5C 322.856,287.286 321.356,287.62 320,288.5C 317.705,291.797 315.038,294.797 312,297.5C 311.598,298.872 311.098,300.205 310.5,301.5C 306.531,303.926 303.031,306.926 300,310.5C 300.238,315.354 298.071,318.354 293.5,319.5C 296.258,312.994 300.258,307.328 305.5,302.5C 312.153,294.404 318.986,286.404 326,278.5C 328.122,270.274 331.289,262.607 335.5,255.5C 336.167,255.167 336.833,254.833 337.5,254.5 Z"/></g>
<g><path style="opacity:1" fill="#34033f" d="M 362.5,290.5 C 361.917,293.947 360.584,296.947 358.5,299.5C 358.343,298.127 358.51,296.793 359,295.5C 359.737,293.404 360.903,291.737 362.5,290.5 Z"/></g>
<g><path style="opacity:1" fill="#d5d5d4" d="M 88.5,297.5 C 88.8333,297.5 89.1667,297.5 89.5,297.5C 89.5,297.833 89.5,298.167 89.5,298.5C 84.3294,299.445 79.1628,300.445 74,301.5C 69.447,299.493 64.6137,298.493 59.5,298.5C 62.5208,297.32 65.6874,296.32 69,295.5C 70.113,296.76 70.2797,297.927 69.5,299C 73.0715,300.835 76.7382,300.835 80.5,299C 77.915,295.129 78.2483,294.795 81.5,298C 83.8848,298.556 86.2181,298.39 88.5,297.5 Z"/></g>
<g><path style="opacity:1" fill="#0f0f0f" d="M 59.5,298.5 C 64.6137,298.493 69.447,299.493 74,301.5C 79.1628,300.445 84.3294,299.445 89.5,298.5C 89.9175,299.222 90.5842,299.722 91.5,300C 89.3808,300.342 89.0474,301.175 90.5,302.5C 89.8333,302.5 89.5,302.833 89.5,303.5C 88.2905,303.932 87.2905,304.599 86.5,305.5C 81.5427,306.989 76.5427,308.323 71.5,309.5C 71.0008,314.492 70.5008,319.492 70,324.5C 68.4749,327.087 66.3083,327.92 63.5,327C 59.6287,322.165 55.462,317.665 51,313.5C 49.6945,306.275 52.5279,301.275 59.5,298.5 Z"/></g>
<g><path style="opacity:1" fill="#761983" d="M 105.5,297.5 C 105.217,298.289 104.717,298.956 104,299.5C 103.263,310.193 103.43,320.86 104.5,331.5C 103.833,330.833 103.167,330.167 102.5,329.5C 102.5,329.167 102.5,328.833 102.5,328.5C 102.81,325.287 102.477,322.287 101.5,319.5C 101.334,312.825 101.5,306.158 102,299.5C 102.816,298.177 103.983,297.511 105.5,297.5 Z"/></g>
<g><path style="opacity:1" fill="#17031a" d="M 346.5,295.5 C 347.839,297.873 349.172,300.207 350.5,302.5C 351.79,304.14 353.457,304.64 355.5,304C 356.399,302.348 357.399,300.848 358.5,299.5C 358.148,302.428 357.482,305.262 356.5,308C 354.101,308.711 351.768,308.544 349.5,307.5C 349.167,308 348.833,308.5 348.5,309C 352.659,313.658 352.326,317.825 347.5,321.5C 348.256,319.733 348.923,317.9 349.5,316C 347.779,311.382 345.446,307.216 342.5,303.5C 341.61,301.218 341.444,298.885 342,296.5C 343.356,295.62 344.856,295.286 346.5,295.5 Z"/></g>
<g><path style="opacity:1" fill="#480955" d="M 342.5,303.5 C 345.446,307.216 347.779,311.382 349.5,316C 348.923,317.9 348.256,319.733 347.5,321.5C 346.5,323.167 345.167,324.5 343.5,325.5C 343.5,324.833 343.5,324.167 343.5,323.5C 345.459,321.754 346.793,319.587 347.5,317C 346.052,312.342 344.385,307.842 342.5,303.5 Z"/></g>
<g><path style="opacity:1" fill="#842a92" d="M 92.5,310.5 C 91.3882,308.401 90.7215,306.067 90.5,303.5C 92.1172,302.962 93.7839,302.629 95.5,302.5C 95.8204,305.898 95.487,309.232 94.5,312.5C 93.8182,311.757 93.1515,311.091 92.5,310.5 Z"/></g>
<g><path style="opacity:1" fill="#494949" d="M 63.5,311.5 C 62.209,311.263 61.209,311.596 60.5,312.5C 58.668,311.86 58.3347,310.86 59.5,309.5C 61.0255,309.994 62.3588,310.661 63.5,311.5 Z"/></g>
<g><path style="opacity:1" fill="#d1d1d1" d="M 60.5,312.5 C 61.209,311.596 62.209,311.263 63.5,311.5C 63.6495,312.552 63.4828,313.552 63,314.5C 62.2917,313.619 61.4584,312.953 60.5,312.5 Z"/></g>
<g><path style="opacity:1" fill="#841796" d="M 362.5,287.5 C 362.5,288.5 362.5,289.5 362.5,290.5C 360.903,291.737 359.737,293.404 359,295.5C 358.51,296.793 358.343,298.127 358.5,299.5C 357.399,300.848 356.399,302.348 355.5,304C 353.457,304.64 351.79,304.14 350.5,302.5C 351.32,298.778 349.987,296.445 346.5,295.5C 341.155,293.67 338.988,295.67 340,301.5C 340.417,302.756 341.25,303.423 342.5,303.5C 344.385,307.842 346.052,312.342 347.5,317C 346.793,319.587 345.459,321.754 343.5,323.5C 344.54,319.22 344.706,314.887 344,310.5C 342.184,309.671 340.351,308.837 338.5,308C 337.226,307.023 337.226,306.189 338.5,305.5C 339.097,305.265 339.43,304.765 339.5,304C 337.104,300.939 337.104,297.772 339.5,294.5C 343.719,293.082 347.719,293.415 351.5,295.5C 351.699,297.96 352.365,300.293 353.5,302.5C 356.471,298.224 358.637,293.558 360,288.5C 360.671,287.748 361.504,287.414 362.5,287.5 Z"/></g>
<g><path style="opacity:1" fill="#3a0246" d="M 346.5,295.5 C 344.856,295.286 343.356,295.62 342,296.5C 341.444,298.885 341.61,301.218 342.5,303.5C 341.25,303.423 340.417,302.756 340,301.5C 338.988,295.67 341.155,293.67 346.5,295.5 Z"/></g>
<g><path style="opacity:1" fill="#380642" d="M 346.5,295.5 C 349.987,296.445 351.32,298.778 350.5,302.5C 349.172,300.207 347.839,297.873 346.5,295.5 Z"/></g>
<g><path style="opacity:1" fill="#612a69" d="M 96.5,323.5 C 95.8333,322.167 95.1667,320.833 94.5,319.5C 93.525,316.689 92.8583,313.689 92.5,310.5C 93.1515,311.091 93.8182,311.757 94.5,312.5C 95.487,309.232 95.8204,305.898 95.5,302.5C 93.7839,302.629 92.1172,302.962 90.5,303.5C 90.1667,303.5 89.8333,303.5 89.5,303.5C 89.5,302.833 89.8333,302.5 90.5,302.5C 92.3792,301.659 94.3792,301.325 96.5,301.5C 96.5,308.833 96.5,316.167 96.5,323.5 Z"/></g>
<g><path style="opacity:1" fill="#856988" d="M 94.5,319.5 C 95.1667,320.833 95.8333,322.167 96.5,323.5C 96.6458,327.519 96.9791,331.519 97.5,335.5C 95.7703,330.43 94.7703,325.097 94.5,319.5 Z"/></g>
<g><path style="opacity:1" fill="#121212" d="M 358.5,313.5 C 364.259,321.81 371.759,328.143 381,332.5C 386.987,330.469 390.487,332.636 391.5,339C 390.509,346.316 387.176,352.316 381.5,357C 377.819,358.314 375.486,357.147 374.5,353.5C 374.528,347.845 374.695,342.178 375,336.5C 368.875,332.044 363.042,327.211 357.5,322C 356.255,321.209 354.922,320.709 353.5,320.5C 354.315,319.163 355.482,318.163 357,317.5C 357.21,315.942 357.71,314.609 358.5,313.5 Z"/></g>
<g><path style="opacity:1" fill="#f3e5f5" d="M 89.5,303.5 C 89.8333,303.5 90.1667,303.5 90.5,303.5C 90.7215,306.067 91.3882,308.401 92.5,310.5C 92.8583,313.689 93.525,316.689 94.5,319.5C 94.7703,325.097 95.7703,330.43 97.5,335.5C 97.7497,337.674 98.7497,339.341 100.5,340.5C 101.58,342.996 102.914,345.33 104.5,347.5C 103.167,347.5 101.833,347.5 100.5,347.5C 100.246,343.825 98.5796,340.991 95.5,339C 95.8333,338.667 96.1667,338.333 96.5,338C 94.7422,332.689 93.0756,327.355 91.5,322C 92.4589,319.88 92.6256,317.713 92,315.5C 89.8792,312.115 88.0458,308.781 86.5,305.5C 87.2905,304.599 88.2905,303.932 89.5,303.5 Z"/></g>
<g><path style="opacity:1" fill="#100413" d="M 102.5,328.5 C 102.5,328.833 102.5,329.167 102.5,329.5C 103.138,332.763 103.138,335.929 102.5,339C 104.83,340.799 106.83,342.965 108.5,345.5C 108.121,347.213 107.121,348.213 105.5,348.5C 104.833,348.5 104.5,348.167 104.5,347.5C 102.914,345.33 101.58,342.996 100.5,340.5C 100.611,339.883 100.944,339.383 101.5,339C 99.7769,335.644 98.7769,331.977 98.5,328C 98.8333,327.5 99.1667,327 99.5,326.5C 100.265,327.612 101.265,328.279 102.5,328.5 Z"/></g>
<g><path style="opacity:1" fill="#3e0e46" d="M 341.5,329.5 C 340.581,332.089 338.914,334.089 336.5,335.5C 337.419,332.911 339.086,330.911 341.5,329.5 Z"/></g>
<g><path style="opacity:1" fill="#700b7f" d="M 293.5,319.5 C 293.028,322.815 291.195,325.149 288,326.5C 285.436,333.91 287.936,336.91 295.5,335.5C 294.848,336.725 293.681,337.392 292,337.5C 282.981,335.799 281.148,331.132 286.5,323.5C 288.833,322.167 291.167,320.833 293.5,319.5 Z"/></g>
<g><path style="opacity:1" fill="#a206b9" d="M 338.5,305.5 C 337.226,306.189 337.226,307.023 338.5,308C 340.351,308.837 342.184,309.671 344,310.5C 344.706,314.887 344.54,319.22 343.5,323.5C 340.675,324.478 339.342,326.478 339.5,329.5C 336.679,329.316 335.012,330.649 334.5,333.5C 332.363,335.439 330.03,337.106 327.5,338.5C 326.719,339.729 326.219,341.062 326,342.5C 324.122,343.053 322.622,344.053 321.5,345.5C 319.508,345.328 317.842,345.995 316.5,347.5C 313.049,346.04 312.383,346.373 314.5,348.5C 309.921,350.911 305.754,353.911 302,357.5C 298.569,357.88 295.236,357.88 292,357.5C 288.987,358.565 288.987,359.898 292,361.5C 294.995,359.902 297.828,359.402 300.5,360C 299.418,364.759 296.751,368.426 292.5,371C 290.415,371.529 288.582,371.029 287,369.5C 285.44,371.294 285.94,372.794 288.5,374C 287.383,375.892 285.716,376.725 283.5,376.5C 282.362,373.696 282.195,370.696 283,367.5C 284.399,366.773 285.899,366.273 287.5,366C 286.427,362.888 286.427,359.721 287.5,356.5C 289.072,351.364 288.072,346.697 284.5,342.5C 285.711,341.28 285.711,340.113 284.5,339C 286.431,339.815 288.598,340.315 291,340.5C 294.709,339.983 298.209,338.983 301.5,337.5C 301.5,336.167 301.5,334.833 301.5,333.5C 302.5,333.5 303.5,333.5 304.5,333.5C 304.5,332.167 304.5,330.833 304.5,329.5C 310.848,328.126 313.848,324.126 313.5,317.5C 316.388,317.78 317.888,316.447 318,313.5C 322.406,311.599 324.573,308.265 324.5,303.5C 325.873,303.657 327.207,303.49 328.5,303C 329.329,301.184 330.163,299.351 331,297.5C 332.755,299.735 333.422,302.068 333,304.5C 335.558,301.638 337.391,301.971 338.5,305.5 Z"/></g>
<g><path style="opacity:1" fill="#9026a0" d="M 343.5,323.5 C 343.5,324.167 343.5,324.833 343.5,325.5C 342.326,326.514 341.66,327.847 341.5,329.5C 339.086,330.911 337.419,332.911 336.5,335.5C 333.833,336.167 332.167,337.833 331.5,340.5C 325.537,344.795 320.204,349.795 315.5,355.5C 315.167,355.5 314.833,355.5 314.5,355.5C 314.421,354.07 314.754,352.736 315.5,351.5C 317.965,349.847 319.965,347.847 321.5,345.5C 322.622,344.053 324.122,343.053 326,342.5C 326.219,341.062 326.719,339.729 327.5,338.5C 330.03,337.106 332.363,335.439 334.5,333.5C 335.012,330.649 336.679,329.316 339.5,329.5C 339.342,326.478 340.675,324.478 343.5,323.5 Z"/></g>
<g><path style="opacity:1" fill="#ae74b6" d="M 336.5,335.5 C 335.167,337.167 333.833,338.833 332.5,340.5C 332.167,340.5 331.833,340.5 331.5,340.5C 332.167,337.833 333.833,336.167 336.5,335.5 Z"/></g>
<g><path style="opacity:1" fill="#9313a5" d="M 209.5,349.5 C 211.706,342.207 209.04,339.041 201.5,340C 200.667,340.833 199.833,341.667 199,342.5C 198.186,347.02 198.353,351.354 199.5,355.5C 199.5,356.167 199.5,356.833 199.5,357.5C 199.5,360.833 199.5,364.167 199.5,367.5C 199.5,372.833 199.5,378.167 199.5,383.5C 195.167,383.5 190.833,383.5 186.5,383.5C 186.167,383.5 185.833,383.5 185.5,383.5C 185.5,383.167 185.5,382.833 185.5,382.5C 189.5,382.5 193.5,382.5 197.5,382.5C 197.357,380.738 197.691,379.071 198.5,377.5C 196.922,368.925 196.255,360.258 196.5,351.5C 192.5,350.833 192.5,350.167 196.5,349.5C 195.406,340.211 199.406,336.711 208.5,339C 211.952,342.406 212.286,345.906 209.5,349.5 Z"/></g>
<g><path style="opacity:1" fill="#960aa9" d="M 243.5,361.5 C 252.32,362.206 255.82,358.206 254,349.5C 244.819,344.751 240.319,347.418 240.5,357.5C 239.68,352.188 239.68,346.855 240.5,341.5C 244.065,343.954 248.065,345.121 252.5,345C 263.658,358.025 260.658,363.525 243.5,361.5 Z"/></g>
<g><path style="opacity:1" fill="#5e0b6b" d="M 209.5,349.5 C 208.272,350.306 207.272,351.306 206.5,352.5C 207.406,349.564 208.072,346.564 208.5,343.5C 205.799,339.533 202.966,339.533 200,343.5C 199.501,347.486 199.334,351.486 199.5,355.5C 198.353,351.354 198.186,347.02 199,342.5C 199.833,341.667 200.667,340.833 201.5,340C 209.04,339.041 211.706,342.207 209.5,349.5 Z"/></g>
<g><path style="opacity:1" fill="#4f0c5a" d="M 107.5,339.5 C 109.562,341.41 111.062,343.743 112,346.5C 113.451,348.464 115.284,349.797 117.5,350.5C 118.925,351.922 119.925,353.589 120.5,355.5C 119.508,355.672 118.842,355.338 118.5,354.5C 115.979,352.299 113.479,349.966 111,347.5C 109.604,344.936 108.437,342.269 107.5,339.5 Z"/></g>
<g><path style="opacity:1" fill="#290331" d="M 208.5,343.5 C 206.956,343.297 205.622,342.63 204.5,341.5C 203.186,342.313 202.019,343.313 201,344.5C 200.772,351.499 200.939,358.499 201.5,365.5C 200.833,362.833 200.167,360.167 199.5,357.5C 199.5,356.833 199.5,356.167 199.5,355.5C 199.334,351.486 199.501,347.486 200,343.5C 202.966,339.533 205.799,339.533 208.5,343.5 Z"/></g>
<g><path style="opacity:1" fill="#1d0821" d="M 102.5,329.5 C 103.167,330.167 103.833,330.833 104.5,331.5C 104.394,334.615 105.394,337.281 107.5,339.5C 108.437,342.269 109.604,344.936 111,347.5C 113.479,349.966 115.979,352.299 118.5,354.5C 117.305,354.322 116.138,353.989 115,353.5C 113.337,351.672 111.504,350.005 109.5,348.5C 108.824,349.602 108.158,350.602 107.5,351.5C 106.599,350.71 105.932,349.71 105.5,348.5C 107.121,348.213 108.121,347.213 108.5,345.5C 106.83,342.965 104.83,340.799 102.5,339C 103.138,335.929 103.138,332.763 102.5,329.5 Z"/></g>
<g><path style="opacity:1" fill="#210527" d="M 284.5,350.5 C 285.53,351.552 286.197,352.886 286.5,354.5C 286.36,356.03 285.693,357.03 284.5,357.5C 284.66,355.801 284.494,354.134 284,352.5C 282.484,355.051 281.651,354.718 281.5,351.5C 280.5,351.5 279.5,351.5 278.5,351.5C 279.134,350.053 280.301,349.387 282,349.5C 283.07,349.528 283.903,349.861 284.5,350.5 Z"/></g>
<g><path style="opacity:1" fill="#131015" d="M 118.5,354.5 C 118.842,355.338 119.508,355.672 120.5,355.5C 120.833,356.167 121.167,356.833 121.5,357.5C 122.412,359.595 123.579,361.595 125,363.5C 126.587,362.273 127.921,362.606 129,364.5C 129.456,365.744 128.956,366.577 127.5,367C 129.392,367.973 131.392,368.64 133.5,369C 132.584,369.278 131.918,369.778 131.5,370.5C 122.319,365.652 114.319,359.319 107.5,351.5C 108.158,350.602 108.824,349.602 109.5,348.5C 111.504,350.005 113.337,351.672 115,353.5C 116.138,353.989 117.305,354.322 118.5,354.5 Z"/></g>
<g><path style="opacity:1" fill="#650f72" d="M 243.5,361.5 C 242.211,360.363 241.211,359.03 240.5,357.5C 240.319,347.418 244.819,344.751 254,349.5C 255.82,358.206 252.32,362.206 243.5,361.5 Z"/></g>
<g><path style="opacity:1" fill="#f2d0f5" d="M 331.5,340.5 C 331.833,340.5 332.167,340.5 332.5,340.5C 330.242,343.357 328.242,346.357 326.5,349.5C 325.833,349.833 325.167,350.167 324.5,350.5C 324.103,349.475 323.437,349.308 322.5,350C 320.559,352.454 318.225,354.287 315.5,355.5C 320.204,349.795 325.537,344.795 331.5,340.5 Z"/></g>
<g><path style="opacity:1" fill="#100014" d="M 208.5,343.5 C 208.072,346.564 207.406,349.564 206.5,352.5C 205.883,352.611 205.383,352.944 205,353.5C 203.509,357.543 202.342,361.543 201.5,365.5C 200.939,358.499 200.772,351.499 201,344.5C 202.019,343.313 203.186,342.313 204.5,341.5C 205.622,342.63 206.956,343.297 208.5,343.5 Z"/></g>
<g><path style="opacity:1" fill="#9c10b0" d="M 321.5,345.5 C 319.965,347.847 317.965,349.847 315.5,351.5C 314.754,352.736 314.421,354.07 314.5,355.5C 309.555,358.811 305.222,362.811 301.5,367.5C 298.907,368.754 296.573,370.42 294.5,372.5C 292.022,373.195 290.022,374.695 288.5,377C 286.613,377.78 284.946,377.613 283.5,376.5C 285.716,376.725 287.383,375.892 288.5,374C 285.94,372.794 285.44,371.294 287,369.5C 288.582,371.029 290.415,371.529 292.5,371C 296.751,368.426 299.418,364.759 300.5,360C 297.828,359.402 294.995,359.902 292,361.5C 288.987,359.898 288.987,358.565 292,357.5C 295.236,357.88 298.569,357.88 302,357.5C 305.754,353.911 309.921,350.911 314.5,348.5C 312.383,346.373 313.049,346.04 316.5,347.5C 317.842,345.995 319.508,345.328 321.5,345.5 Z"/></g>
<g><path style="opacity:1" fill="#620d71" d="M 277.5,351.5 C 276.494,356.929 275.494,362.262 274.5,367.5C 274.335,364.15 274.502,360.817 275,357.5C 275.24,355.148 276.073,353.148 277.5,351.5 Z"/></g>
<g><path style="opacity:1" fill="#efe5f0" d="M 324.5,350.5 C 316.973,361.363 307.306,369.697 295.5,375.5C 297.091,372.569 299.091,369.902 301.5,367.5C 305.222,362.811 309.555,358.811 314.5,355.5C 314.833,355.5 315.167,355.5 315.5,355.5C 318.225,354.287 320.559,352.454 322.5,350C 323.437,349.308 324.103,349.475 324.5,350.5 Z"/></g>
<g><path style="opacity:1" fill="#791389" d="M 120.5,355.5 C 125.75,358.083 130.75,361.083 135.5,364.5C 137.62,363.128 138.62,363.795 138.5,366.5C 141.878,365.891 143.878,367.224 144.5,370.5C 142.453,368.925 140.119,367.925 137.5,367.5C 132.461,363.814 127.128,360.481 121.5,357.5C 121.167,356.833 120.833,356.167 120.5,355.5 Z"/></g>
<g><path style="opacity:1" fill="#121113" d="M 343.5,336.5 C 333.764,354.404 320.097,368.571 302.5,379C 295.552,382.261 288.552,385.428 281.5,388.5C 281.5,387.167 281.5,385.833 281.5,384.5C 283.854,384.162 286.187,383.662 288.5,383C 289.833,382.333 289.833,381.667 288.5,381C 290.134,380.506 291.801,380.34 293.5,380.5C 293.5,379.167 293.5,377.833 293.5,376.5C 294.167,376.167 294.833,375.833 295.5,375.5C 307.306,369.697 316.973,361.363 324.5,350.5C 325.167,350.167 325.833,349.833 326.5,349.5C 326.369,350.239 326.536,350.906 327,351.5C 330.66,349.591 333.827,347.091 336.5,344C 336.306,342.57 336.306,341.07 336.5,339.5C 338.349,338.407 340.016,337.074 341.5,335.5C 342.183,335.863 342.85,336.196 343.5,336.5 Z"/></g>
<g><path style="opacity:1" fill="#4a0a55" d="M 137.5,367.5 C 140.119,367.925 142.453,368.925 144.5,370.5C 147.06,371.385 149.06,373.051 150.5,375.5C 145.632,373.618 141.299,370.952 137.5,367.5 Z"/></g>
<g><path style="opacity:1" fill="#e6b9e9" d="M 301.5,367.5 C 299.091,369.902 297.091,372.569 295.5,375.5C 294.833,375.833 294.167,376.167 293.5,376.5C 292.609,377.11 291.609,377.443 290.5,377.5C 291.833,375.833 293.167,374.167 294.5,372.5C 296.573,370.42 298.907,368.754 301.5,367.5 Z"/></g>
<g><path style="opacity:1" fill="#721482" d="M 144.5,370.5 C 147.599,370.092 149.933,371.259 151.5,374C 154.79,374.725 157.79,375.892 160.5,377.5C 159.167,377.5 157.833,377.5 156.5,377.5C 154.315,377.296 152.315,376.63 150.5,375.5C 149.06,373.051 147.06,371.385 144.5,370.5 Z"/></g>
<g><path style="opacity:1" fill="#1d1c1d" d="M 157.5,384.5 C 148.188,380.847 139.521,376.18 131.5,370.5C 133.144,370.714 134.644,370.38 136,369.5C 139.095,372.061 142.595,373.894 146.5,375C 149.196,376.075 151.196,377.908 152.5,380.5C 154.078,381.298 155.744,381.798 157.5,382C 158.598,382.77 158.598,383.603 157.5,384.5 Z"/></g>
<g><path style="opacity:1" fill="#4d0558" d="M 199.5,357.5 C 200.167,360.167 200.833,362.833 201.5,365.5C 201.5,372.167 201.5,378.833 201.5,385.5C 201.167,385.5 200.833,385.5 200.5,385.5C 197.287,385.81 194.287,385.477 191.5,384.5C 194.5,384.5 197.5,384.5 200.5,384.5C 200.822,378.642 200.489,372.975 199.5,367.5C 199.5,364.167 199.5,360.833 199.5,357.5 Z"/></g>
<g><path style="opacity:1" fill="#801d8e" d="M 199.5,367.5 C 200.489,372.975 200.822,378.642 200.5,384.5C 197.5,384.5 194.5,384.5 191.5,384.5C 189.585,384.784 187.919,384.451 186.5,383.5C 190.833,383.5 195.167,383.5 199.5,383.5C 199.5,378.167 199.5,372.833 199.5,367.5 Z"/></g>
<g><path style="opacity:1" fill="#861d97" d="M 284.5,350.5 C 285.5,350.5 286.5,350.5 287.5,350.5C 287.5,352.5 287.5,354.5 287.5,356.5C 286.427,359.721 286.427,362.888 287.5,366C 285.899,366.273 284.399,366.773 283,367.5C 282.195,370.696 282.362,373.696 283.5,376.5C 284.946,377.613 286.613,377.78 288.5,377C 290.022,374.695 292.022,373.195 294.5,372.5C 293.167,374.167 291.833,375.833 290.5,377.5C 290.5,377.833 290.5,378.167 290.5,378.5C 286.833,379.167 283.167,379.833 279.5,380.5C 280.108,376.528 280.608,372.528 281,368.5C 282.924,365.811 284.091,362.811 284.5,359.5C 284.5,358.833 284.5,358.167 284.5,357.5C 285.693,357.03 286.36,356.03 286.5,354.5C 286.197,352.886 285.53,351.552 284.5,350.5 Z"/></g>
<g><path style="opacity:1" fill="#2c0235" d="M 206.5,352.5 C 204.321,363.802 203.988,375.136 205.5,386.5C 204.167,386.167 202.833,385.833 201.5,385.5C 201.5,378.833 201.5,372.167 201.5,365.5C 202.342,361.543 203.509,357.543 205,353.5C 205.383,352.944 205.883,352.611 206.5,352.5 Z"/></g>
<g><path style="opacity:1" fill="#470954" d="M 156.5,377.5 C 157.833,377.5 159.167,377.5 160.5,377.5C 162.964,378.567 165.297,379.9 167.5,381.5C 163.467,380.975 159.8,379.642 156.5,377.5 Z"/></g>
<g><path style="opacity:1" fill="#3f0949" d="M 284.5,359.5 C 284.091,362.811 282.924,365.811 281,368.5C 280.608,372.528 280.108,376.528 279.5,380.5C 283.167,379.833 286.833,379.167 290.5,378.5C 286.915,380.806 282.915,382.139 278.5,382.5C 278.273,375.028 279.606,367.861 282.5,361C 282.836,359.97 283.503,359.47 284.5,359.5 Z"/></g>
<g><path style="opacity:1" fill="#290232" d="M 277.5,351.5 C 277.833,351.5 278.167,351.5 278.5,351.5C 276.35,362.707 275.35,374.04 275.5,385.5C 274.5,385.5 273.5,385.5 272.5,385.5C 272.783,384.711 273.283,384.044 274,383.5C 274.499,378.177 274.666,372.844 274.5,367.5C 275.494,362.262 276.494,356.929 277.5,351.5 Z"/></g>
<g><path style="opacity:1" fill="#6e127c" d="M 160.5,377.5 C 168.684,379.813 177.017,381.48 185.5,382.5C 185.5,382.833 185.5,383.167 185.5,383.5C 181.5,383.5 177.5,383.5 173.5,383.5C 171.858,381.919 169.858,381.253 167.5,381.5C 165.297,379.9 162.964,378.567 160.5,377.5 Z"/></g>
<g><path style="opacity:1" fill="#2d0534" d="M 173.5,383.5 C 177.5,383.5 181.5,383.5 185.5,383.5C 185.833,383.5 186.167,383.5 186.5,383.5C 187.919,384.451 189.585,384.784 191.5,384.5C 194.287,385.477 197.287,385.81 200.5,385.5C 199.036,386.16 197.369,386.493 195.5,386.5C 188.02,385.493 180.687,384.493 173.5,383.5 Z"/></g>
<g><path style="opacity:1" fill="#970eac" d="M 313.5,317.5 C 313.848,324.126 310.848,328.126 304.5,329.5C 304.5,330.833 304.5,332.167 304.5,333.5C 303.5,333.5 302.5,333.5 301.5,333.5C 301.5,334.833 301.5,336.167 301.5,337.5C 298.209,338.983 294.709,339.983 291,340.5C 288.598,340.315 286.431,339.815 284.5,339C 285.711,340.113 285.711,341.28 284.5,342.5C 288.072,346.697 289.072,351.364 287.5,356.5C 287.5,354.5 287.5,352.5 287.5,350.5C 286.5,350.5 285.5,350.5 284.5,350.5C 283.903,349.861 283.07,349.528 282,349.5C 280.301,349.387 279.134,350.053 278.5,351.5C 278.167,351.5 277.833,351.5 277.5,351.5C 276.073,353.148 275.24,355.148 275,357.5C 274.502,360.817 274.335,364.15 274.5,367.5C 272.901,372.569 272.067,377.902 272,383.5C 269.328,384.282 266.828,385.282 264.5,386.5C 245.765,386.961 227.098,386.461 208.5,385C 207.874,384.25 207.374,383.416 207,382.5C 206.833,378.833 206.667,375.167 206.5,371.5C 206.287,366.233 206.954,361.233 208.5,356.5C 207.825,365.197 207.825,373.864 208.5,382.5C 211.156,383.158 213.822,383.825 216.5,384.5C 231.998,384.49 247.498,384.49 263,384.5C 265.49,383.664 267.99,382.998 270.5,382.5C 271.081,377.025 270.414,371.858 268.5,367C 270.227,365.611 271.561,363.944 272.5,362C 271.274,358.714 271.607,355.548 273.5,352.5C 271.466,350.401 271.132,348.068 272.5,345.5C 274.382,344.907 276.215,344.24 278,343.5C 278.49,342.207 278.657,340.873 278.5,339.5C 279.822,339.67 280.989,339.337 282,338.5C 282.336,333.468 282.836,328.468 283.5,323.5C 284.5,323.5 285.5,323.5 286.5,323.5C 281.148,331.132 282.981,335.799 292,337.5C 293.681,337.392 294.848,336.725 295.5,335.5C 297.371,335.141 298.871,334.141 300,332.5C 304.049,327.05 308.549,322.05 313.5,317.5 Z"/></g>
<g><path style="opacity:1" fill="#6c1979" d="M 274.5,367.5 C 274.666,372.844 274.499,378.177 274,383.5C 273.283,384.044 272.783,384.711 272.5,385.5C 270.901,385.232 269.568,385.566 268.5,386.5C 267.167,386.5 265.833,386.5 264.5,386.5C 266.828,385.282 269.328,384.282 272,383.5C 272.067,377.902 272.901,372.569 274.5,367.5 Z"/></g>
<g><path style="opacity:1" fill="#791689" d="M 209.5,349.5 C 208.781,351.764 208.448,354.097 208.5,356.5C 206.954,361.233 206.287,366.233 206.5,371.5C 206.667,375.167 206.833,378.833 207,382.5C 207.374,383.416 207.874,384.25 208.5,385C 227.098,386.461 245.765,386.961 264.5,386.5C 251.01,387.496 237.344,387.829 223.5,387.5C 218.167,387.5 212.833,387.5 207.5,387.5C 206.833,387.167 206.167,386.833 205.5,386.5C 203.988,375.136 204.321,363.802 206.5,352.5C 207.272,351.306 208.272,350.306 209.5,349.5 Z"/></g>
<g><path style="opacity:1" fill="#470851" d="M 264.5,386.5 C 265.833,386.5 267.167,386.5 268.5,386.5C 267.07,387.537 265.403,388.204 263.5,388.5C 260.5,388.5 257.5,388.5 254.5,388.5C 243.986,388.828 233.653,388.494 223.5,387.5C 237.344,387.829 251.01,387.496 264.5,386.5 Z"/></g>
<g><path style="opacity:1" fill="#0e0311" d="M 278.5,351.5 C 279.5,351.5 280.5,351.5 281.5,351.5C 281.651,354.718 282.484,355.051 284,352.5C 284.494,354.134 284.66,355.801 284.5,357.5C 284.5,358.167 284.5,358.833 284.5,359.5C 283.503,359.47 282.836,359.97 282.5,361C 279.606,367.861 278.273,375.028 278.5,382.5C 282.915,382.139 286.915,380.806 290.5,378.5C 290.5,378.167 290.5,377.833 290.5,377.5C 291.609,377.443 292.609,377.11 293.5,376.5C 293.5,377.833 293.5,379.167 293.5,380.5C 291.801,380.34 290.134,380.506 288.5,381C 289.833,381.667 289.833,382.333 288.5,383C 286.187,383.662 283.854,384.162 281.5,384.5C 281.5,385.833 281.5,387.167 281.5,388.5C 277.266,386.969 273.6,387.803 270.5,391C 259.504,391.967 259.171,392.8 269.5,393.5C 266.344,394.434 263.011,395.101 259.5,395.5C 258.167,395.5 256.833,395.5 255.5,395.5C 255.5,395.167 255.5,394.833 255.5,394.5C 239.818,392.937 223.818,391.603 207.5,390.5C 209.5,390.167 211.5,389.833 213.5,389.5C 218.56,391.134 223.726,391.801 229,391.5C 240.692,391.013 252.192,390.013 263.5,388.5C 265.403,388.204 267.07,387.537 268.5,386.5C 269.568,385.566 270.901,385.232 272.5,385.5C 273.5,385.5 274.5,385.5 275.5,385.5C 275.35,374.04 276.35,362.707 278.5,351.5 Z"/></g>
<g><path style="opacity:1" fill="#24002b" d="M 207.5,387.5 C 212.833,387.5 218.167,387.5 223.5,387.5C 233.653,388.494 243.986,388.828 254.5,388.5C 238.807,389.853 223.14,389.52 207.5,387.5 Z"/></g>
<g><path style="opacity:1" fill="#350b3d" d="M 169.5,387.5 C 178.342,388.334 187.175,389.334 196,390.5C 197.986,390.569 199.486,391.235 200.5,392.5C 189.945,391.394 179.611,389.727 169.5,387.5 Z"/></g>
<g><path style="opacity:1" fill="#7a3f82" d="M 157.5,384.5 C 161.664,385.116 165.664,386.116 169.5,387.5C 179.611,389.727 189.945,391.394 200.5,392.5C 200.5,393.167 200.5,393.833 200.5,394.5C 190.824,393.466 181.157,392.299 171.5,391C 168.261,390.378 165.261,389.212 162.5,387.5C 160.632,386.737 158.965,385.737 157.5,384.5 Z"/></g>
<g><path style="opacity:1" fill="#120116" d="M 121.5,357.5 C 127.128,360.481 132.461,363.814 137.5,367.5C 141.299,370.952 145.632,373.618 150.5,375.5C 152.315,376.63 154.315,377.296 156.5,377.5C 159.8,379.642 163.467,380.975 167.5,381.5C 169.858,381.253 171.858,381.919 173.5,383.5C 180.687,384.493 188.02,385.493 195.5,386.5C 197.369,386.493 199.036,386.16 200.5,385.5C 200.833,385.5 201.167,385.5 201.5,385.5C 202.833,385.833 204.167,386.167 205.5,386.5C 206.167,386.833 206.833,387.167 207.5,387.5C 223.14,389.52 238.807,389.853 254.5,388.5C 257.5,388.5 260.5,388.5 263.5,388.5C 252.192,390.013 240.692,391.013 229,391.5C 223.726,391.801 218.56,391.134 213.5,389.5C 211.5,389.833 209.5,390.167 207.5,390.5C 223.818,391.603 239.818,392.937 255.5,394.5C 239.49,394.558 223.49,394.225 207.5,393.5C 205.973,393.427 204.973,394.094 204.5,395.5C 204.167,395.5 203.833,395.5 203.5,395.5C 202.5,395.5 201.5,395.5 200.5,395.5C 200.5,395.167 200.5,394.833 200.5,394.5C 200.5,393.833 200.5,393.167 200.5,392.5C 199.486,391.235 197.986,390.569 196,390.5C 187.175,389.334 178.342,388.334 169.5,387.5C 165.664,386.116 161.664,385.116 157.5,384.5C 158.598,383.603 158.598,382.77 157.5,382C 155.744,381.798 154.078,381.298 152.5,380.5C 151.196,377.908 149.196,376.075 146.5,375C 142.595,373.894 139.095,372.061 136,369.5C 134.644,370.38 133.144,370.714 131.5,370.5C 131.918,369.778 132.584,369.278 133.5,369C 131.392,368.64 129.392,367.973 127.5,367C 128.956,366.577 129.456,365.744 129,364.5C 127.921,362.606 126.587,362.273 125,363.5C 123.579,361.595 122.412,359.595 121.5,357.5 Z"/></g>
<g><path style="opacity:1" fill="#fbe1fc" d="M 162.5,387.5 C 165.261,389.212 168.261,390.378 171.5,391C 181.157,392.299 190.824,393.466 200.5,394.5C 200.5,394.833 200.5,395.167 200.5,395.5C 188.594,395.529 176.928,394.029 165.5,391C 163.574,390.578 162.574,389.411 162.5,387.5 Z"/></g>
<g><path style="opacity:1" fill="#3c0945" d="M 207.5,393.5 C 223.49,394.225 239.49,394.558 255.5,394.5C 255.5,394.833 255.5,395.167 255.5,395.5C 253.167,395.5 250.833,395.5 248.5,395.5C 238.161,395.666 227.828,395.5 217.5,395C 213.975,394.821 210.641,394.321 207.5,393.5 Z"/></g>
<g><path style="opacity:1" fill="#762980" d="M 207.5,393.5 C 210.641,394.321 213.975,394.821 217.5,395C 227.828,395.5 238.161,395.666 248.5,395.5C 248.082,396.222 247.416,396.722 246.5,397C 232.786,397.692 219.12,397.192 205.5,395.5C 205.167,395.5 204.833,395.5 204.5,395.5C 204.973,394.094 205.973,393.427 207.5,393.5 Z"/></g>
<g><path style="opacity:1" fill="#935699" d="M 205.5,395.5 C 219.12,397.192 232.786,397.692 246.5,397C 247.416,396.722 248.082,396.222 248.5,395.5C 250.833,395.5 253.167,395.5 255.5,395.5C 256.833,395.5 258.167,395.5 259.5,395.5C 258.167,396.167 256.833,396.833 255.5,397.5C 244.518,398.286 233.518,398.619 222.5,398.5C 216.687,397.825 211.02,396.825 205.5,395.5 Z"/></g>
<g><path style="opacity:1" fill="#fcd6fd" d="M 255.5,397.5 C 249.238,399.019 242.738,399.686 236,399.5C 231.32,399.499 226.82,399.166 222.5,398.5C 233.518,398.619 244.518,398.286 255.5,397.5 Z"/></g>
<g><path style="opacity:1" fill="#121212" d="M 200.5,395.5 C 201.5,395.5 202.5,395.5 203.5,395.5C 203.556,410.18 204.056,424.847 205,439.5C 207.172,440.585 209.172,441.919 211,443.5C 213.291,448.713 215.458,453.88 217.5,459C 215.513,462.638 213.513,466.305 211.5,470C 210.056,470.781 208.723,470.614 207.5,469.5C 207.006,467.974 206.339,466.641 205.5,465.5C 205.44,464.957 205.107,464.624 204.5,464.5C 202.49,466.171 200.157,466.838 197.5,466.5C 180.841,456.233 181.674,447.233 200,439.5C 200.5,424.837 200.667,410.17 200.5,395.5 Z"/></g>
<g><path style="opacity:1" fill="#535253" d="M 270.5,393.5 C 271.919,392.549 273.585,392.216 275.5,392.5C 275.5,398.167 275.5,403.833 275.5,409.5C 274.512,404.36 274.179,399.026 274.5,393.5C 273.167,393.5 271.833,393.5 270.5,393.5 Z"/></g>
<g><path style="opacity:1" fill="#0e0e0e" d="M 281.5,388.5 C 280.828,389.267 279.995,389.934 279,390.5C 278.06,405.708 279.394,420.708 283,435.5C 290.399,431.616 294.899,433.783 296.5,442C 293.454,447.592 293.954,452.759 298,457.5C 300.486,462.791 299.986,467.624 296.5,472C 294.833,472.667 293.167,472.667 291.5,472C 290.091,467.594 287.091,464.927 282.5,464C 280.71,461.509 278.543,459.342 276,457.5C 275.22,455.613 275.387,453.946 276.5,452.5C 277.293,448.09 278.293,443.59 279.5,439C 279.472,437.93 279.139,437.097 278.5,436.5C 276.602,427.642 275.602,418.642 275.5,409.5C 275.5,403.833 275.5,398.167 275.5,392.5C 273.585,392.216 271.919,392.549 270.5,393.5C 270.167,393.5 269.833,393.5 269.5,393.5C 259.171,392.8 259.504,391.967 270.5,391C 273.6,387.803 277.266,386.969 281.5,388.5 Z"/></g>
<g><path style="opacity:1" fill="#d6d6d6" d="M 287.5,441.5 C 288.649,441.791 289.316,442.624 289.5,444C 289.642,446.912 288.309,448.412 285.5,448.5C 285.166,445.812 285.832,443.479 287.5,441.5 Z"/></g>
<g><path style="opacity:1" fill="#5c5c5c" d="M 278.5,436.5 C 279.139,437.097 279.472,437.93 279.5,439C 278.293,443.59 277.293,448.09 276.5,452.5C 276.365,447.047 277.032,441.714 278.5,436.5 Z"/></g>
<g><path style="opacity:1" fill="#c3c3c3" d="M 206.5,450.5 C 208.616,452.088 208.949,454.088 207.5,456.5C 205.902,457.485 204.235,457.651 202.5,457C 204.221,455.056 205.554,452.89 206.5,450.5 Z"/></g>
<g><path style="opacity:1" fill="#686868" d="M 205.5,465.5 C 202.966,467.592 200.299,467.926 197.5,466.5C 200.157,466.838 202.49,466.171 204.5,464.5C 205.107,464.624 205.44,464.957 205.5,465.5 Z"/></g>
</svg>
